<?xml version="1.0" encoding="UTF-8" standalone="no"?>
<!DOCTYPE svg PUBLIC "-//W3C//DTD SVG 1.1//EN" "http://www.w3.org/Graphics/SVG/1.1/DTD/svg11.dtd">
<svg width="100%" height="100%" viewBox="0 0 411 359" version="1.1" xmlns="http://www.w3.org/2000/svg" xmlns:xlink="http://www.w3.org/1999/xlink" xml:space="preserve" xmlns:serif="http://www.serif.com/" style="fill-rule:evenodd;clip-rule:evenodd;stroke-linejoin:round;stroke-miterlimit:2;">
    <g transform="matrix(1,0,0,1,-249.097,-222.687)">
        <g transform="matrix(3.92699,0,0,3.92699,1447.56,415.374)">
            <clipPath id="_clip1">
                <rect x="-305.186" y="-49.067" width="104.608" height="91.261"/>
            </clipPath>
            <g clip-path="url(#_clip1)">
                <g transform="matrix(1,0,0,1,-326,-326)">
                    <path d="M73.3,319.5L38.8,281.5C40.1,280.2 41.7,279.1 43.5,278.3C45.3,277.5 47.2,277.1 49.2,277.1C51.4,277.1 53.4,277.5 55.2,278.4C57,279.2 58.6,280.4 59.9,281.9L73.3,296.6L86.6,281.9C88,280.4 89.6,279.3 91.4,278.4C93.2,277.6 95.2,277.1 97.3,277.1C99.3,277.1 101.3,277.5 103,278.3C104.8,279.1 106.3,280.1 107.7,281.5L73.3,319.5M73.3,325.3L38.8,363.3C40.1,364.6 41.7,365.7 43.5,366.5C45.3,367.3 47.2,367.7 49.2,367.7C51.3,367.7 53.3,367.3 55.2,366.4C57,365.6 58.6,364.4 60,362.9L73.3,348.2L86.7,362.9C88,364.4 89.6,365.5 91.4,366.4C93.2,367.2 95.2,367.7 97.4,367.7C99.4,367.7 101.4,367.3 103.1,366.5C104.9,365.7 106.4,364.7 107.8,363.3L73.3,325.3M179.4,324.3C181.1,324.1 182.1,323.5 182.5,322.5C182.9,321.4 183,320.8 182.9,320.7L182.9,311.7C182.8,310 182.2,309 181.1,308.6C180.1,308.2 179.5,308.1 179.3,308.2L154,308.2L154,324.4L179.4,324.4L179.4,324.3ZM193.2,297.9C195.9,300.6 197.4,304.1 197.5,308.2L197.5,322.6C197.4,326.7 196,330.1 193.2,332.8C190.5,335.5 187,336.9 182.9,337L154,337C153.9,341.1 152.5,344.5 149.8,347.2C147.1,349.9 143.7,351.3 139.7,351.4L139.7,299C139.7,297.5 140.3,296.2 141.3,295.2C142.3,294.2 143.6,293.6 145.1,293.6L183,293.6C187.1,293.7 190.5,295.1 193.2,297.9ZM245.4,320.7C247.1,320.6 248.2,320 248.6,318.9C249,317.9 249.1,317.3 249.1,317.1L249.1,311.7C248.9,310 248.3,309 247.3,308.6C246.2,308.2 245.6,308.1 245.5,308.2L220.3,308.2L220.3,320.7L245.4,320.7ZM260.1,328.1C257.9,330.7 255.2,332.3 251.8,333.1L263.4,349.7C262.4,350.2 261.3,350.6 260.2,350.9C259.1,351.2 257.9,351.3 256.7,351.3C254.2,351.3 252,350.7 249.9,349.6C247.9,348.5 246.2,347 244.9,345.1L236.6,333.2L220.2,333.2L220.2,336.8C220.1,340.9 218.7,344.3 216,347C213.3,349.7 209.9,351.1 205.8,351.2L205.8,299C205.8,297.5 206.4,296.2 207.4,295.2C208.4,294.2 209.7,293.6 211.2,293.6L249,293.6C253.1,293.7 256.5,295.1 259.2,297.9C261.9,300.6 263.3,304.1 263.4,308.2L263.4,319C263.4,322.5 262.3,325.6 260.1,328.1ZM314.9,311.7C314.7,310 314.1,309 313.1,308.6C312,308.2 311.4,308.1 311.3,308.2L289.8,308.2C288.1,308.3 287,308.9 286.6,310C286.2,311 286.1,311.6 286.1,311.8L286.1,333.4C286.3,335.1 286.9,336.2 287.9,336.6C289,337 289.6,337.1 289.7,337.1L311.2,337.1C312.9,336.9 314,336.3 314.4,335.3C314.8,334.2 314.9,333.6 314.9,333.5L314.9,311.7ZM325.1,297.9C327.8,300.6 329.2,304.1 329.3,308.2L329.3,337C329.2,341.1 327.8,344.5 325.1,347.2C322.4,349.9 319,351.3 314.9,351.4L286.1,351.4C282,351.3 278.6,349.9 275.9,347.2C273.2,344.5 271.8,341.1 271.7,337L271.7,308.2C271.8,304.1 273.2,300.7 275.9,297.9C278.6,295.2 282,293.7 286.1,293.6L314.9,293.6C319,293.7 322.4,295.1 325.1,297.9ZM477.1,293.6L468,293.6C465,293.6 462.4,294.4 460.1,296C457.8,297.6 456,299.7 454.8,302.2L454.9,302L446.4,320.6L438,302L438,302.2C436.8,299.6 435.1,297.5 432.8,296C430.5,294.4 427.8,293.6 424.8,293.6L415.8,293.6C414.2,293.6 412.9,294.2 411.9,295.2C410.9,296.2 410.4,297.5 410.3,299L410.3,351.3C414.4,351.2 417.8,349.8 420.5,347.1C423.2,344.4 424.6,341 424.7,336.9L424.7,309.3C424.7,308.9 424.8,308.6 425,308.4C425.2,308.2 425.5,308.1 425.9,308.1C426.1,308.1 426.3,308.2 426.5,308.3C426.7,308.4 426.9,308.6 426.9,308.8L442.9,344.1C443.2,344.7 443.7,345.2 444.2,345.6C444.8,346 445.4,346.2 446.2,346.2C446.9,346.2 447.6,346 448.1,345.6C448.7,345.2 449.1,344.7 449.5,344.1L465.5,308.7C465.6,308.5 465.8,308.4 466,308.2C466.2,308.1 466.4,308 466.7,308C467,308 467.3,308.1 467.5,308.3C467.7,308.5 467.8,308.8 467.8,309.2L467.8,336.8C467.9,340.9 469.3,344.3 472,347C474.7,349.7 478.1,351.1 482.2,351.2L482.2,299C482.2,297.5 481.6,296.2 480.6,295.2C479.9,294.2 478.7,293.6 477.1,293.6ZM534,311.7C533.8,310 533.2,309 532.2,308.6C531.1,308.2 530.5,308.1 530.4,308.2L508.9,308.2C507.2,308.3 506.1,308.9 505.7,310C505.3,311 505.2,311.6 505.2,311.8L505.2,333.4C505.4,335.1 506,336.2 507,336.6C508.1,337 508.7,337.1 508.8,337.1L530.3,337.1C532,336.9 533.1,336.3 533.5,335.3C533.9,334.2 534,333.6 534,333.5L534,311.7ZM544.2,297.9C546.9,300.6 548.3,304.1 548.4,308.2L548.4,337C548.3,341.1 546.9,344.5 544.2,347.2C541.5,349.9 538.1,351.3 534,351.4L505.2,351.4C501.1,351.3 497.7,349.9 495,347.2C492.3,344.5 490.9,341.1 490.8,337L490.8,308.2C490.9,304.1 492.3,300.7 495,297.9C497.7,295.2 501.1,293.7 505.2,293.6L534,293.6C538.1,293.7 541.5,295.1 544.2,297.9Z" style="fill-rule:nonzero;"/>
                    <path d="M70.4,322.4L44.4,351C42.9,352.6 41.2,353.9 39.2,354.8C37.2,355.7 35,356.2 32.6,356.2C30.4,356.2 28.3,355.8 26.3,354.9C24.4,354.1 22.6,352.9 21.2,351.4L47.6,322.4L21.2,293.4C22.7,291.9 24.4,290.8 26.3,289.9C28.3,289.1 30.3,288.6 32.6,288.6C34.9,288.6 37.1,289.1 39.1,290C41.1,290.9 42.9,292.2 44.4,293.8L70.4,322.4M76.2,322.4L102.2,351C103.7,352.6 105.4,353.9 107.4,354.8C109.4,355.7 111.6,356.2 113.9,356.2C116.1,356.2 118.2,355.8 120.2,354.9C122.2,354.1 123.9,352.9 125.3,351.4L98.9,322.4L125.3,293.4C123.8,291.9 122.1,290.8 120.2,289.9C118.3,289.1 116.2,288.6 113.9,288.6C111.6,288.6 109.4,289.1 107.4,290C105.4,290.9 103.6,292.2 102.1,293.8L76.2,322.4M402.1,297.7C400.9,296.4 399.4,295.5 397.7,294.8C396,294.1 394.2,293.7 392.3,293.7C390.3,293.7 388.4,294.1 386.7,294.9C385,295.7 383.5,296.8 382.3,298.1L369.8,311.8L357.3,298.1C356,296.7 354.5,295.6 352.9,294.8C351.2,294 349.4,293.6 347.4,293.6C345.5,293.6 343.7,294 342,294.7C340.3,295.4 338.9,296.4 337.6,297.6L360.1,322.3L337.6,347C338.9,348.3 340.3,349.3 342,350C343.7,350.7 345.5,351.1 347.4,351.1C349.4,351.1 351.3,350.7 353,349.9C354.7,349.1 356.2,348 357.5,346.7L370,333L382.5,346.7C383.7,348.1 385.2,349.2 386.9,349.9C388.6,350.7 390.5,351.1 392.5,351.1C394.4,351.1 396.2,350.7 397.9,350C399.6,349.3 401,348.3 402.3,347L379.8,322.3L402.1,297.7ZM621.2,297.7C620,296.4 618.5,295.5 616.8,294.8C615.1,294.1 613.3,293.7 611.4,293.7C609.4,293.7 607.5,294.1 605.8,294.9C604.1,295.7 602.6,296.8 601.4,298.1L588.9,311.8L576.4,298.1C575.1,296.7 573.6,295.6 572,294.8C570.3,294 568.5,293.6 566.5,293.6C564.6,293.6 562.8,294 561.1,294.7C559.4,295.4 558,296.4 556.7,297.6L579.2,322.3L556.7,347C558,348.3 559.4,349.3 561.1,350C562.8,350.7 564.6,351.1 566.5,351.1C568.5,351.1 570.4,350.7 572.1,349.9C573.8,349.1 575.3,348 576.6,346.7L589.1,333L601.6,346.7C602.8,348.1 604.3,349.2 606,349.9C607.7,350.7 609.6,351.1 611.6,351.1C613.5,351.1 615.3,350.7 617,350C618.7,349.3 620.1,348.3 621.4,347L598.9,322.3L621.2,297.7Z" style="fill:rgb(229,112,0);fill-rule:nonzero;"/>
                </g>
            </g>
        </g>
    </g>
</svg>
