<?xml version="1.0" encoding="UTF-8" standalone="no"?>
<!DOCTYPE svg PUBLIC "-//W3C//DTD SVG 1.1//EN" "http://www.w3.org/Graphics/SVG/1.1/DTD/svg11.dtd">
<svg width="100%" height="100%" viewBox="0 0 1920 803" version="1.1" xmlns="http://www.w3.org/2000/svg" xmlns:xlink="http://www.w3.org/1999/xlink" xml:space="preserve" xmlns:serif="http://www.serif.com/" style="fill-rule:evenodd;clip-rule:evenodd;stroke-linejoin:round;stroke-miterlimit:2;">
    <g id="plex">
        <rect x="0" y="0" width="1920" height="803"/>
        <g transform="matrix(1,0,0,1,-12.084,-32.903)">
            <text x="871.956px" y="509.54px" style="font-family:'Helvetica-Light', 'Helvetica', sans-serif;font-weight:300;font-size:290.066px;fill:white;">plex</text>
        </g>
        <g transform="matrix(0.4338,0,0,0.4338,454.325,401.222)">
            <g transform="matrix(1,0,0,1,-500,-230.449)">
                <clipPath id="_clip1">
                    <rect x="0" y="0" width="1000" height="460.897"/>
                </clipPath>
                <g clip-path="url(#_clip1)">
                    <path id="path4" d="M164.189,82.432C124.324,82.432 98.649,93.919 77.027,120.946L77.027,91.216L0,91.216L0,457.432C0,457.432 1.351,458.108 5.405,458.784C10.811,460.135 39.189,466.216 60.135,448.649C78.378,433.108 82.432,414.865 82.432,394.595L82.432,341.892C104.73,365.541 129.73,375.676 164.865,375.676C240.541,375.676 298.649,314.189 298.649,232.432C298.649,143.919 242.568,82.432 164.189,82.432ZM149.324,306.081C106.757,306.081 72.973,270.946 72.973,228.378C72.973,186.486 112.838,152.703 149.324,152.703C192.568,152.703 225.676,185.811 225.676,229.054C225.676,272.297 191.892,306.081 149.324,306.081Z" style="fill:white;fill-rule:nonzero;"/>
                    <path id="path6" d="M408.108,223.649C408.108,255.405 411.486,293.919 442.568,335.811C443.243,336.486 444.595,338.513 444.595,338.513C431.757,360.135 416.216,375 395.27,375C379.054,375 362.838,366.216 349.324,351.351C335.135,335.135 328.378,314.189 328.378,291.892L328.378,0L407.432,0L408.108,223.649Z" style="fill:white;fill-rule:nonzero;"/>
                    <g id="polygon8" transform="matrix(6.75676,0,0,6.75676,0,0)">
                        <path d="M117.9,33.9L104.1,13.5L118.3,13.5L132,33.9L118.3,54.2L104.1,54.2L117.9,33.9Z" style="fill:rgb(235,175,0);fill-rule:nonzero;"/>
                    </g>
                    <g id="polygon10" transform="matrix(6.75676,0,0,6.75676,0,0)">
                        <path d="M135.7,31.6L148,13.5L133.8,13.5L128.7,21L135.7,31.6Z" style="fill:white;fill-rule:nonzero;"/>
                    </g>
                    <path id="path12" d="M869.595,316.216L885.811,338.514C901.351,362.838 921.622,375 945.27,375C970.27,374.324 987.838,352.703 994.595,344.595C994.595,344.595 982.432,333.784 966.892,315.541C945.946,291.216 918.243,246.622 917.568,244.595L869.595,316.216Z" style="fill:white;fill-rule:nonzero;"/>
                    <path id="path16" d="M632.432,287.162C616.216,302.027 605.405,310.135 583.108,310.135C543.243,310.135 520.27,281.757 516.892,250.676L728.378,250.676C729.73,246.622 730.405,241.216 730.405,232.432C730.405,146.622 667.568,82.432 585.135,82.432C506.757,82.432 442.568,147.973 442.568,229.73C442.568,310.811 506.757,375 587.162,375C643.243,375 691.892,343.243 718.243,287.162L632.432,287.162ZM585.811,147.297C620.946,147.297 647.297,170.27 653.378,200.676L519.595,200.676C526.351,168.919 551.351,147.297 585.811,147.297Z" style="fill:white;fill-rule:nonzero;"/>
                </g>
            </g>
        </g>
    </g>
</svg>
