<?xml version="1.0" encoding="UTF-8" standalone="no"?>
<!DOCTYPE svg PUBLIC "-//W3C//DTD SVG 1.1//EN" "http://www.w3.org/Graphics/SVG/1.1/DTD/svg11.dtd">
<svg width="100%" height="100%" viewBox="0 0 1920 803" version="1.1" xmlns="http://www.w3.org/2000/svg" xmlns:xlink="http://www.w3.org/1999/xlink" xml:space="preserve" xmlns:serif="http://www.serif.com/" style="fill-rule:evenodd;clip-rule:evenodd;stroke-miterlimit:1;">
    <g id="sonarr">
        <rect x="0" y="0" width="1920" height="803" style="fill:rgb(33,62,68);"/>
        <g transform="matrix(1,0,0,1,-12.084,-32.903)">
            <text x="871.956px" y="509.54px" style="font-family:'Helvetica-Light', 'Helvetica', sans-serif;font-weight:300;font-size:290.066px;fill:white;">sonarr</text>
        </g>
        <g transform="matrix(2,0,0,2,454.125,401.5)">
            <g transform="matrix(1,0,0,1,-108.35,-108.45)">
                <clipPath id="_clip1">
                    <rect x="0" y="0" width="216.7" height="216.9"/>
                </clipPath>
                <g clip-path="url(#_clip1)">
                    <path d="M216.7,108.45C216.7,138.283 206.167,163.85 185.1,185.15C184.4,185.983 183.617,186.75 182.75,187.45C179.284,190.85 175.617,193.934 171.75,196.7C153.483,210.167 132.383,216.9 108.45,216.9C84.483,216.9 63.417,210.167 45.25,196.7C40.45,193.3 35.95,189.45 31.75,185.15C15.383,168.884 5.333,149.983 1.6,128.45C0.867,124.25 0.383,119.983 0.15,115.65C0.05,113.25 0,110.85 0,108.45C0,105.917 0.05,103.5 0.15,101.2C0.15,100.967 0.216,100.733 0.35,100.5C1.917,73.9 12.383,50.917 31.75,31.55C53.05,10.517 78.617,0 108.45,0C138.383,0 163.934,10.517 185.1,31.55C206.167,52.983 216.7,78.617 216.7,108.45Z" style="fill:rgb(238,238,238);"/>
                    <path d="M194.65,42.5L172.25,64.9C159.152,77.998 158,89.4 158,109.5C158,127.434 160.852,143.852 174.2,157.2C183.946,166.946 193.2,176.15 193.2,176.15C190.7,179.217 188,182.217 185.1,185.15C184.4,185.983 183.617,186.75 182.75,187.45C180.217,189.95 177.583,192.267 174.85,194.4L157.3,176.85C141.702,161.25 129.304,159.75 108.7,159.75C88.93,159.75 75.477,161.572 61,176.05C52.353,184.697 42.45,194.65 42.45,194.65C38.683,191.783 35.117,188.616 31.75,185.15C28.95,182.35 26.333,179.483 23.9,176.55C23.9,176.55 33.698,166.702 43.05,157.35C56.902,143.497 59.15,127.434 59.15,109.5C59.15,92 56.276,75.677 43.55,62.95C34.715,54.114 22.5,41.95 22.5,41.95C25.333,38.35 28.417,34.883 31.75,31.55C34.684,28.683 37.684,26 40.75,23.5L61.1,43.85C74.102,56.852 90.767,60.2 108.7,60.2C127.167,60.2 143.777,56.623 157.3,43.1C165.62,34.78 176.6,23.85 176.6,23.85C179.5,26.217 182.333,28.783 185.1,31.55C188.567,35.083 191.75,38.733 194.65,42.5Z" style="fill:rgb(58,63,81);"/>
                    <g>
                        <path d="M78.7,114C78.5,112.833 78.368,111.65 78.3,110.45C78.268,109.783 78.25,109.117 78.25,108.45C78.25,107.75 78.268,107.083 78.3,106.45C78.3,106.383 78.318,106.317 78.35,106.25C78.785,98.883 81.684,92.517 87.05,87.15C92.95,81.317 100.034,78.4 108.3,78.4C116.6,78.4 123.684,81.317 129.55,87.15C135.384,93.084 138.3,100.183 138.3,108.45C138.3,116.717 135.384,123.8 129.55,129.7C129.35,129.933 129.134,130.15 128.9,130.35C127.934,131.283 126.918,132.133 125.85,132.9C120.785,136.633 114.934,138.5 108.3,138.5C101.666,138.5 95.834,136.634 90.8,132.9C89.468,131.966 88.218,130.9 87.05,129.7C82.518,125.2 79.734,119.966 78.7,114Z" style="fill:rgb(0,204,255);"/>
                        <path d="M157.8,59.75L142.8,74.4M30.785,32.526L71.65,73.25M156.25,157.5L184.058,186.28M185.913,32.386L157.8,59.75M32.35,185.75L59.7,158.35" style="fill:none;fill-rule:nonzero;stroke:rgb(0,204,255);stroke-width:2px;"/>
                        <path d="M157.8,59.75L140.85,76.95M58.97,60.604L76.17,77.754M59.623,158.43L76.373,141.03M138.301,139.634L156.329,157.579" style="fill:none;fill-rule:nonzero;stroke:rgb(0,204,255);stroke-width:7px;"/>
                    </g>
                </g>
            </g>
        </g>
    </g>
    <g id="docker">
        <rect x="0" y="0" width="1920" height="803" style="fill:rgb(34,145,179);"/>
        <g transform="matrix(1,0,0,1,-69.084,-32.903)">
            <text x="871.956px" y="509.54px" style="font-family:'Helvetica-Light', 'Helvetica', sans-serif;font-weight:300;font-size:290.066px;fill:white;">Docker</text>
        </g>
        <g transform="matrix(1.69301,0,0,1.69301,455.389,460.434)">
            <clipPath id="_clip2">
                <rect x="-128.071" y="-107.5" width="255.085" height="145.823"/>
            </clipPath>
            <g clip-path="url(#_clip2)">
                <g transform="matrix(1,0,0,1,-128,-107.5)">
                    <g>
                        <path d="M38.617,173.984L38.617,157.622C38.617,155.473 39.961,153.745 42.186,153.745L42.803,153.745C45.028,153.745 46.366,155.474 46.366,157.622L46.366,192.069C46.366,200.469 42.215,207.153 34.984,211.411C31.631,213.384 27.926,214.396 24.039,214.396L22.502,214.396C14.1,214.396 7.425,210.243 3.16,203.015C1.181,199.66 0.176,195.961 0.176,192.069L0.176,190.534C0.176,182.131 4.328,175.451 11.554,171.185C14.91,169.204 18.61,168.2 22.502,168.2L24.039,168.2C29.725,168.2 34.549,170.404 38.617,173.984ZM7.924,191.3C7.924,197.368 10.865,201.93 16.182,204.839C18.332,206.016 20.666,206.648 23.119,206.648C29.075,206.648 33.493,203.838 36.54,198.791C37.957,196.443 38.617,193.874 38.617,191.143C38.617,185.883 36.127,181.778 31.888,178.729C29.318,176.881 26.425,175.954 23.27,175.954C16.778,175.954 12.106,179.233 9.302,185.06C8.356,187.029 7.924,189.121 7.924,191.3ZM73.248,168.2L74.322,168.2C83.3,168.2 90.128,172.555 94.455,180.392C96.185,183.527 97.111,186.949 97.111,190.534L97.111,192.069C97.111,200.469 92.969,207.162 85.726,211.412C82.373,213.379 78.669,214.396 74.783,214.396L73.248,214.396C64.846,214.396 58.169,210.243 53.906,203.015C51.927,199.66 50.919,195.961 50.919,192.069L50.919,190.534C50.919,182.13 55.088,175.472 62.296,171.187C65.647,169.196 69.354,168.2 73.248,168.2ZM58.667,191.3C58.667,197.19 61.558,201.523 66.533,204.569C68.869,206 71.442,206.648 74.171,206.648C79.991,206.648 84.293,203.697 87.287,198.785C88.715,196.443 89.361,193.87 89.361,191.143C89.361,185.666 86.723,181.482 82.213,178.45C79.742,176.787 76.991,175.954 74.015,175.954C67.523,175.954 62.851,179.233 60.048,185.06C59.1,187.029 58.667,189.121 58.667,191.3ZM129.324,176.573C128.155,176.025 125.964,175.843 124.7,175.795C118.226,175.551 113.542,179.197 110.794,184.908C109.845,186.878 109.412,188.963 109.412,191.143C109.412,197.78 112.897,202.427 118.821,205.26C120.985,206.294 123.779,206.491 126.144,206.491C128.225,206.491 131.164,205.216 133.01,204.339L133.33,204.187L134.763,204.187L134.921,204.219C136.683,204.586 138.013,205.703 138.013,207.599L138.013,208.366C138.013,213.084 129.391,214.164 126.101,214.394C114.491,215.197 105.808,208.821 102.498,197.747C101.923,195.824 101.664,193.914 101.664,191.91L101.664,190.377C101.664,181.974 105.834,175.318 113.041,171.036C116.392,169.046 120.098,168.047 123.992,168.047L125.527,168.047C129.657,168.047 133.461,169.22 136.871,171.549L137.152,171.743L137.328,172.035C137.696,172.645 138.013,173.351 138.013,174.077L138.013,174.844C138.013,176.822 136.534,177.886 134.747,178.23L134.599,178.256L134.141,178.256C132.985,178.256 130.356,177.059 129.324,176.573ZM154.458,181.82C157.467,178.806 160.488,175.798 163.543,172.834C164.394,172.007 167.617,168.507 168.886,168.507L170.274,168.507L170.432,168.54C172.2,168.907 173.524,170.026 173.524,171.926L173.524,172.692C173.524,173.988 172.006,175.494 171.169,176.381C169.389,178.268 167.515,180.093 165.693,181.942L156.331,191.445C160.362,195.484 164.389,199.528 168.387,203.599C169.493,204.725 170.599,205.852 171.688,206.995C172.073,207.4 172.641,207.904 172.964,208.465C173.311,208.991 173.524,209.584 173.524,210.217L173.524,211.018L173.479,211.202C173.044,212.97 171.922,214.396 169.963,214.396L169.346,214.396C168.064,214.396 166.616,212.945 165.738,212.117C163.929,210.411 162.181,208.617 160.407,206.874L154.458,201.034L154.458,210.368C154.458,212.518 153.112,214.246 150.889,214.246L150.278,214.246C148.053,214.246 146.709,212.518 146.709,210.368L146.709,157.772C146.709,155.621 148.054,153.902 150.278,153.902L150.889,153.902C153.112,153.902 154.458,155.621 154.458,157.772L154.458,181.82ZM251.035,168.507L251.804,168.507C254.129,168.507 255.68,170.073 255.68,172.384C255.68,175.592 252.613,176.413 249.959,176.413C246.479,176.413 243.157,178.52 240.758,180.883C237.767,183.832 236.457,187.609 236.457,191.761L236.457,210.52C236.457,212.671 235.115,214.396 232.887,214.396L232.276,214.396C230.049,214.396 228.707,212.671 228.707,210.52L228.707,190.684C228.707,183.067 232.415,176.849 238.596,172.488C242.288,169.883 246.516,168.507 251.035,168.507ZM195.961,205.683C198.78,206.668 201.996,206.527 204.889,206.023C206.368,205.394 210.153,203.744 211.545,203.985L211.762,204.022L211.962,204.12C212.812,204.532 213.623,205.115 214.057,205.979C215.071,208.007 214.584,210.045 212.592,211.196L211.929,211.579C204.578,215.821 196.761,215.233 189.434,211.271C185.931,209.377 183.251,206.566 181.274,203.139L180.812,202.338C176.093,194.166 176.73,185.57 182.051,177.799C183.889,175.113 186.29,173.038 189.097,171.415L190.159,170.802C197.081,166.806 204.5,167.08 211.61,170.587C215.432,172.473 218.529,175.284 220.663,178.981L221.047,179.647C222.597,182.333 220.589,184.673 218.516,186.273C216.11,188.129 213.681,190.363 211.375,192.353C206.233,196.792 201.099,201.241 195.961,205.683ZM189.306,201.009C195.056,196.078 200.808,191.144 206.543,186.193C208.502,184.503 210.652,182.749 212.596,180.972C211.036,179.006 208.43,177.589 206.215,176.744C201.747,175.041 197.339,175.613 193.24,177.979C187.875,181.077 185.59,186.01 185.791,192.149C185.869,194.567 186.52,196.897 187.803,198.954C188.255,199.679 188.76,200.36 189.306,201.009Z" style="fill:rgb(54,69,72);"/>
                        <path d="M147.488,45.732L170.354,45.732L170.354,69.107L181.915,69.107C187.254,69.107 192.746,68.156 197.802,66.443C200.287,65.6 203.075,64.428 205.526,62.954C202.298,58.739 200.65,53.418 200.165,48.172C199.506,41.038 200.946,31.752 205.774,26.168L208.178,23.388L211.042,25.691C218.253,31.484 224.318,39.58 225.387,48.809C234.07,46.255 244.265,46.859 251.918,51.276L255.058,53.088L253.406,56.314C246.933,68.946 233.401,72.86 220.171,72.167C200.374,121.476 157.273,144.82 105.014,144.82C78.015,144.82 53.244,134.727 39.138,110.773L38.907,110.382L36.852,106.201C32.084,95.657 30.5,84.106 31.574,72.564L31.897,69.107L51.45,69.107L51.45,45.732L74.315,45.732L74.315,22.866L120.048,22.866L120.048,0L147.488,0L147.488,45.732" style="fill:rgb(54,69,72);"/>
                        <path d="M221.57,54.38C223.103,42.464 214.186,33.105 208.656,28.661C202.283,36.029 201.293,55.339 211.291,63.469C205.712,68.425 193.954,72.917 181.915,72.917L35.37,72.917C34.2,85.484 36.406,97.057 41.445,106.962L43.112,110.011C44.167,111.803 45.321,113.532 46.567,115.196L46.567,115.196C52.592,115.583 58.147,115.717 63.229,115.604L63.231,115.604C73.218,115.383 81.367,114.205 87.543,112.065C88.462,111.745 89.465,112.233 89.783,113.151C90.1,114.07 89.614,115.073 88.695,115.391C87.874,115.676 87.018,115.942 86.134,116.195C86.133,116.195 86.132,116.195 86.131,116.196C81.268,117.584 76.053,118.518 69.325,118.933C69.724,118.94 68.909,118.993 68.907,118.994C68.678,119.008 68.39,119.041 68.16,119.053C65.512,119.202 62.654,119.233 59.732,119.233C56.536,119.233 53.389,119.172 49.87,118.994L49.78,119.053C61.991,132.777 81.082,141.008 105.014,141.008C155.662,141.008 198.622,118.556 217.646,68.151C231.142,69.536 244.113,66.094 250.013,54.576C240.615,49.153 228.529,50.882 221.57,54.38" style="fill:rgb(34,160,200);"/>
                        <path d="M221.57,54.38C223.103,42.464 214.186,33.105 208.656,28.661C202.283,36.029 201.293,55.339 211.291,63.469C205.712,68.425 193.954,72.917 181.915,72.917L44.048,72.917C43.45,92.163 50.592,106.772 63.229,115.604L63.231,115.604C73.218,115.383 81.367,114.205 87.543,112.065C88.462,111.745 89.465,112.233 89.783,113.151C90.1,114.07 89.614,115.073 88.695,115.391C87.874,115.676 87.018,115.942 86.134,116.195C86.133,116.195 86.132,116.195 86.131,116.196C81.268,117.584 75.605,118.638 68.877,119.053C68.875,119.053 68.714,118.898 68.712,118.898C85.949,127.74 110.942,127.708 139.597,116.701C171.728,104.357 201.626,80.841 222.488,53.944C222.173,54.086 221.866,54.231 221.57,54.38" style="fill:rgb(55,177,217);"/>
                        <path d="M35.645,88.186C36.556,94.918 38.524,101.221 41.445,106.962L43.112,110.011C44.167,111.803 45.321,113.532 46.567,115.196C52.593,115.583 58.148,115.717 63.231,115.604C73.218,115.383 81.367,114.205 87.543,112.065C88.462,111.745 89.465,112.233 89.783,113.151C90.1,114.07 89.614,115.073 88.695,115.391C87.874,115.676 87.018,115.942 86.134,116.195C86.133,116.195 86.132,116.195 86.131,116.196C81.268,117.584 75.635,118.578 68.907,118.994C68.676,119.008 68.273,119.011 68.04,119.023C65.394,119.172 62.565,119.263 59.642,119.263C56.447,119.263 53.179,119.202 49.661,119.023C61.871,132.747 81.082,141.008 105.014,141.008C148.373,141.008 186.098,124.55 207.993,88.186L35.645,88.186" style="fill:rgb(27,129,165);"/>
                        <path d="M45.367,88.186C47.959,100.005 54.188,109.285 63.231,115.604C73.218,115.383 81.367,114.205 87.543,112.065C88.462,111.745 89.465,112.233 89.783,113.151C90.1,114.07 89.614,115.073 88.695,115.391C87.874,115.676 87.018,115.942 86.134,116.195C86.133,116.195 86.132,116.195 86.131,116.196C81.268,117.584 75.516,118.578 68.787,118.994C86.023,127.834 110.944,127.707 139.597,116.701C156.931,110.041 173.614,100.127 188.581,88.186L45.367,88.186" style="fill:rgb(29,145,180);"/>
                        <path d="M55.261,49.543L75.078,49.543L75.078,69.361L55.261,69.361L55.261,49.543ZM56.911,51.195L58.475,51.195L58.475,67.71L56.911,67.71L56.911,51.195ZM59.852,51.195L61.478,51.195L61.478,67.71L59.852,67.71L59.852,51.195ZM62.853,51.195L64.48,51.195L64.48,67.71L62.853,67.71L62.853,51.195ZM65.857,51.195L67.483,51.195L67.483,67.71L65.857,67.71L65.857,51.195ZM68.86,51.195L70.486,51.195L70.486,67.71L68.86,67.71L68.86,51.195ZM71.862,51.195L73.427,51.195L73.427,67.71L71.862,67.71L71.862,51.195Z" style="fill:rgb(35,163,194);"/>
                        <path d="M78.126,26.677L97.945,26.677L97.945,46.494L78.126,46.494L78.126,26.677ZM79.778,28.329L81.341,28.329L81.341,44.843L79.778,44.843L79.778,28.329ZM82.719,28.329L84.344,28.329L84.344,44.843L82.719,44.843L82.719,28.329ZM85.72,28.329L87.346,28.329L87.346,44.843L85.72,44.843L85.72,28.329ZM88.723,28.329L90.349,28.329L90.349,44.843L88.723,44.843L88.723,28.329ZM91.726,28.329L93.353,28.329L93.353,44.843L91.726,44.843L91.726,28.329ZM94.728,28.329L96.294,28.329L96.294,44.843L94.728,44.843L94.728,28.329Z" style="fill:rgb(35,163,194);"/>
                        <path d="M78.126,49.543L97.945,49.543L97.945,69.361L78.126,69.361L78.126,49.543ZM79.778,51.195L81.341,51.195L81.341,67.71L79.778,67.71L79.778,51.195ZM82.719,51.195L84.344,51.195L84.344,67.71L82.719,67.71L82.719,51.195ZM85.72,51.195L87.346,51.195L87.346,67.71L85.72,67.71L85.72,51.195ZM88.723,51.195L90.349,51.195L90.349,67.71L88.723,67.71L88.723,51.195ZM91.726,51.195L93.353,51.195L93.353,67.71L91.726,67.71L91.726,51.195ZM94.728,51.195L96.294,51.195L96.294,67.71L94.728,67.71L94.728,51.195Z" style="fill:rgb(52,187,222);"/>
                        <path d="M100.993,49.543L120.811,49.543L120.811,69.361L100.993,69.361L100.993,49.543ZM102.644,51.195L104.207,51.195L104.207,67.71L102.644,67.71L102.644,51.195ZM105.584,51.195L107.21,51.195L107.21,67.71L105.584,67.71L105.584,51.195ZM108.587,51.195L110.213,51.195L110.213,67.71L108.587,67.71L108.587,51.195ZM111.59,51.195L113.216,51.195L113.216,67.71L111.59,67.71L111.59,51.195ZM114.592,51.195L116.22,51.195L116.22,67.71L114.592,67.71L114.592,51.195ZM117.595,51.195L119.159,51.195L119.159,67.71L117.595,67.71L117.595,51.195Z" style="fill:rgb(35,163,194);"/>
                        <path d="M100.993,26.677L120.811,26.677L120.811,46.494L100.993,46.494L100.993,26.677ZM102.644,28.329L104.207,28.329L104.207,44.843L102.644,44.843L102.644,28.329ZM105.584,28.329L107.21,28.329L107.21,44.843L105.584,44.843L105.584,28.329ZM108.587,28.329L110.213,28.329L110.213,44.843L108.587,44.843L108.587,28.329ZM111.59,28.329L113.216,28.329L113.216,44.843L111.59,44.843L111.59,28.329ZM114.592,28.329L116.22,28.329L116.22,44.843L114.592,44.843L114.592,28.329ZM117.595,28.329L119.159,28.329L119.159,44.843L117.595,44.843L117.595,28.329Z" style="fill:rgb(52,187,222);"/>
                        <path d="M123.859,49.543L143.677,49.543L143.677,69.361L123.859,69.361L123.859,49.543ZM125.511,51.195L127.074,51.195L127.074,67.71L125.511,67.71L125.511,51.195ZM128.451,51.195L130.077,51.195L130.077,67.71L128.451,67.71L128.451,51.195ZM131.453,51.195L133.079,51.195L133.079,67.71L131.453,67.71L131.453,51.195ZM134.456,51.195L136.083,51.195L136.083,67.71L134.456,67.71L134.456,51.195ZM137.459,51.195L139.086,51.195L139.086,67.71L137.459,67.71L137.459,51.195ZM140.462,51.195L142.026,51.195L142.026,67.71L140.462,67.71L140.462,51.195Z" style="fill:rgb(52,187,222);"/>
                        <path d="M123.859,26.677L143.677,26.677L143.677,46.494L123.859,46.494L123.859,26.677ZM125.511,28.329L127.074,28.329L127.074,44.843L125.511,44.843L125.511,28.329ZM128.451,28.329L130.077,28.329L130.077,44.843L128.451,44.843L128.451,28.329ZM131.453,28.329L133.079,28.329L133.079,44.843L131.453,44.843L131.453,28.329ZM134.456,28.329L136.083,28.329L136.083,44.843L134.456,44.843L134.456,28.329ZM137.459,28.329L139.086,28.329L139.086,44.843L137.459,44.843L137.459,28.329ZM140.462,28.329L142.026,28.329L142.026,44.843L140.462,44.843L140.462,28.329Z" style="fill:rgb(35,163,194);"/>
                        <path d="M123.859,3.811L143.677,3.811L143.677,23.629L123.859,23.629L123.859,3.811ZM125.511,5.461L127.074,5.461L127.074,21.977L125.511,21.977L125.511,5.461ZM128.451,5.461L130.077,5.461L130.077,21.977L128.451,21.977L128.451,5.461ZM131.453,5.461L133.079,5.461L133.079,21.977L131.453,21.977L131.453,5.461ZM134.456,5.461L136.083,5.461L136.083,21.977L134.456,21.977L134.456,5.461ZM137.459,5.461L139.086,5.461L139.086,21.977L137.459,21.977L137.459,5.461ZM140.462,5.461L142.026,5.461L142.026,21.977L140.462,21.977L140.462,5.461Z" style="fill:rgb(52,187,222);"/>
                        <path d="M146.725,49.543L166.543,49.543L166.543,69.361L146.725,69.361L146.725,49.543ZM148.376,51.195L149.94,51.195L149.94,67.71L148.376,67.71L148.376,51.195ZM151.316,51.195L152.942,51.195L152.942,67.71L151.316,67.71L151.316,51.195ZM154.319,51.195L155.946,51.195L155.946,67.71L154.319,67.71L154.319,51.195ZM157.321,51.195L158.948,51.195L158.948,67.71L157.321,67.71L157.321,51.195ZM160.325,51.195L161.951,51.195L161.951,67.71L160.325,67.71L160.325,51.195ZM163.327,51.195L164.891,51.195L164.891,67.71L163.327,67.71L163.327,51.195Z" style="fill:rgb(35,163,194);"/>
                        <path d="M96.704,101.492C99.723,101.492 102.17,103.94 102.17,106.959C102.17,109.978 99.723,112.426 96.704,112.426C93.684,112.426 91.236,109.978 91.236,106.959C91.236,103.94 93.684,101.492 96.704,101.492" style="fill:rgb(211,236,236);"/>
                        <path d="M96.704,103.043C97.204,103.043 97.681,103.137 98.121,103.308C97.644,103.584 97.321,104.1 97.321,104.692C97.321,105.574 98.037,106.289 98.919,106.289C99.524,106.289 100.049,105.953 100.321,105.457C100.513,105.919 100.619,106.427 100.619,106.959C100.619,109.121 98.866,110.874 96.704,110.874C94.542,110.874 92.788,109.121 92.788,106.959C92.788,104.796 94.542,103.043 96.704,103.043" style="fill:rgb(54,69,72);"/>
                        <path d="M0,90.162L254.327,90.162C248.79,88.758 236.806,86.86 238.783,79.603C228.714,91.254 204.43,87.777 198.301,82.031C191.477,91.93 151.747,88.167 148.976,80.456C140.42,90.497 113.909,90.497 105.353,80.456C102.58,88.167 62.851,91.93 56.026,82.031C49.898,87.777 25.616,91.254 15.546,79.603C17.522,86.86 5.539,88.758 0,90.162" style="fill:rgb(54,69,72);"/>
                        <path d="M111.237,140.89C97.698,134.465 90.266,125.731 86.131,116.196C81.102,117.631 75.056,118.549 68.031,118.943C65.385,119.091 62.602,119.167 59.68,119.167C56.313,119.167 52.764,119.068 49.038,118.87C61.455,131.279 76.73,140.834 105.014,141.008C107.102,141.008 109.175,140.968 111.237,140.89" style="fill:rgb(189,217,215);"/>
                        <path d="M91.16,124.994C89.287,122.451 87.47,119.255 86.134,116.195C81.104,117.631 75.057,118.549 68.031,118.943C72.857,121.563 79.758,123.99 91.16,124.994" style="fill:rgb(211,236,236);"/>
                    </g>
                </g>
            </g>
        </g>
    </g>
</svg>
