<?xml version="1.0" encoding="UTF-8" standalone="no"?>
<!DOCTYPE svg PUBLIC "-//W3C//DTD SVG 1.1//EN" "http://www.w3.org/Graphics/SVG/1.1/DTD/svg11.dtd">
<svg width="100%" height="100%" viewBox="0 0 432 247" version="1.1" xmlns="http://www.w3.org/2000/svg" xmlns:xlink="http://www.w3.org/1999/xlink" xml:space="preserve" xmlns:serif="http://www.serif.com/" style="fill-rule:evenodd;clip-rule:evenodd;stroke-linejoin:round;stroke-miterlimit:2;">
    <g transform="matrix(1,0,0,1,-238.684,-278.436)">
        <g transform="matrix(1.69301,0,0,1.69301,455.389,460.434)">
            <clipPath id="_clip1">
                <rect x="-128.071" y="-107.5" width="255.085" height="145.823"/>
            </clipPath>
            <g clip-path="url(#_clip1)">
                <g transform="matrix(1,0,0,1,-128,-107.5)">
                    <g>
                        <path d="M147.488,45.732L170.354,45.732L170.354,69.107L181.915,69.107C187.254,69.107 192.746,68.156 197.802,66.443C200.287,65.6 203.075,64.428 205.526,62.954C202.298,58.739 200.65,53.418 200.165,48.172C199.506,41.038 200.946,31.752 205.774,26.168L208.178,23.388L211.042,25.691C218.253,31.484 224.318,39.58 225.387,48.809C234.07,46.255 244.265,46.859 251.918,51.276L255.058,53.088L253.406,56.314C246.933,68.946 233.401,72.86 220.171,72.167C200.374,121.476 157.273,144.82 105.014,144.82C78.015,144.82 53.244,134.727 39.138,110.773L38.907,110.382L36.852,106.201C32.084,95.657 30.5,84.106 31.574,72.564L31.897,69.107L51.45,69.107L51.45,45.732L74.315,45.732L74.315,22.866L120.048,22.866L120.048,0L147.488,0L147.488,45.732" style="fill:rgb(54,69,72);"/>
                        <path d="M221.57,54.38C223.103,42.464 214.186,33.105 208.656,28.661C202.283,36.029 201.293,55.339 211.291,63.469C205.712,68.425 193.954,72.917 181.915,72.917L35.37,72.917C34.2,85.484 36.406,97.057 41.445,106.962L43.112,110.011C44.167,111.803 45.321,113.532 46.567,115.196L46.567,115.196C52.592,115.583 58.147,115.717 63.229,115.604L63.231,115.604C73.218,115.383 81.367,114.205 87.543,112.065C88.462,111.745 89.465,112.233 89.783,113.151C90.1,114.07 89.614,115.073 88.695,115.391C87.874,115.676 87.018,115.942 86.134,116.195C86.133,116.195 86.132,116.195 86.131,116.196C81.268,117.584 76.053,118.518 69.325,118.933C69.724,118.94 68.909,118.993 68.907,118.994C68.678,119.008 68.39,119.041 68.16,119.053C65.512,119.202 62.654,119.233 59.732,119.233C56.536,119.233 53.389,119.172 49.87,118.994L49.78,119.053C61.991,132.777 81.082,141.008 105.014,141.008C155.662,141.008 198.622,118.556 217.646,68.151C231.142,69.536 244.113,66.094 250.013,54.576C240.615,49.153 228.529,50.882 221.57,54.38" style="fill:rgb(34,160,200);"/>
                        <path d="M221.57,54.38C223.103,42.464 214.186,33.105 208.656,28.661C202.283,36.029 201.293,55.339 211.291,63.469C205.712,68.425 193.954,72.917 181.915,72.917L44.048,72.917C43.45,92.163 50.592,106.772 63.229,115.604L63.231,115.604C73.218,115.383 81.367,114.205 87.543,112.065C88.462,111.745 89.465,112.233 89.783,113.151C90.1,114.07 89.614,115.073 88.695,115.391C87.874,115.676 87.018,115.942 86.134,116.195C86.133,116.195 86.132,116.195 86.131,116.196C81.268,117.584 75.605,118.638 68.877,119.053C68.875,119.053 68.714,118.898 68.712,118.898C85.949,127.74 110.942,127.708 139.597,116.701C171.728,104.357 201.626,80.841 222.488,53.944C222.173,54.086 221.866,54.231 221.57,54.38" style="fill:rgb(55,177,217);"/>
                        <path d="M35.645,88.186C36.556,94.918 38.524,101.221 41.445,106.962L43.112,110.011C44.167,111.803 45.321,113.532 46.567,115.196C52.593,115.583 58.148,115.717 63.231,115.604C73.218,115.383 81.367,114.205 87.543,112.065C88.462,111.745 89.465,112.233 89.783,113.151C90.1,114.07 89.614,115.073 88.695,115.391C87.874,115.676 87.018,115.942 86.134,116.195C86.133,116.195 86.132,116.195 86.131,116.196C81.268,117.584 75.635,118.578 68.907,118.994C68.676,119.008 68.273,119.011 68.04,119.023C65.394,119.172 62.565,119.263 59.642,119.263C56.447,119.263 53.179,119.202 49.661,119.023C61.871,132.747 81.082,141.008 105.014,141.008C148.373,141.008 186.098,124.55 207.993,88.186L35.645,88.186" style="fill:rgb(27,129,165);"/>
                        <path d="M45.367,88.186C47.959,100.005 54.188,109.285 63.231,115.604C73.218,115.383 81.367,114.205 87.543,112.065C88.462,111.745 89.465,112.233 89.783,113.151C90.1,114.07 89.614,115.073 88.695,115.391C87.874,115.676 87.018,115.942 86.134,116.195C86.133,116.195 86.132,116.195 86.131,116.196C81.268,117.584 75.516,118.578 68.787,118.994C86.023,127.834 110.944,127.707 139.597,116.701C156.931,110.041 173.614,100.127 188.581,88.186L45.367,88.186" style="fill:rgb(29,145,180);"/>
                        <path d="M55.261,49.543L75.078,49.543L75.078,69.361L55.261,69.361L55.261,49.543ZM56.911,51.195L58.475,51.195L58.475,67.71L56.911,67.71L56.911,51.195ZM59.852,51.195L61.478,51.195L61.478,67.71L59.852,67.71L59.852,51.195ZM62.853,51.195L64.48,51.195L64.48,67.71L62.853,67.71L62.853,51.195ZM65.857,51.195L67.483,51.195L67.483,67.71L65.857,67.71L65.857,51.195ZM68.86,51.195L70.486,51.195L70.486,67.71L68.86,67.71L68.86,51.195ZM71.862,51.195L73.427,51.195L73.427,67.71L71.862,67.71L71.862,51.195Z" style="fill:rgb(35,163,194);"/>
                        <path d="M78.126,26.677L97.945,26.677L97.945,46.494L78.126,46.494L78.126,26.677ZM79.778,28.329L81.341,28.329L81.341,44.843L79.778,44.843L79.778,28.329ZM82.719,28.329L84.344,28.329L84.344,44.843L82.719,44.843L82.719,28.329ZM85.72,28.329L87.346,28.329L87.346,44.843L85.72,44.843L85.72,28.329ZM88.723,28.329L90.349,28.329L90.349,44.843L88.723,44.843L88.723,28.329ZM91.726,28.329L93.353,28.329L93.353,44.843L91.726,44.843L91.726,28.329ZM94.728,28.329L96.294,28.329L96.294,44.843L94.728,44.843L94.728,28.329Z" style="fill:rgb(35,163,194);"/>
                        <path d="M78.126,49.543L97.945,49.543L97.945,69.361L78.126,69.361L78.126,49.543ZM79.778,51.195L81.341,51.195L81.341,67.71L79.778,67.71L79.778,51.195ZM82.719,51.195L84.344,51.195L84.344,67.71L82.719,67.71L82.719,51.195ZM85.72,51.195L87.346,51.195L87.346,67.71L85.72,67.71L85.72,51.195ZM88.723,51.195L90.349,51.195L90.349,67.71L88.723,67.71L88.723,51.195ZM91.726,51.195L93.353,51.195L93.353,67.71L91.726,67.71L91.726,51.195ZM94.728,51.195L96.294,51.195L96.294,67.71L94.728,67.71L94.728,51.195Z" style="fill:rgb(52,187,222);"/>
                        <path d="M100.993,49.543L120.811,49.543L120.811,69.361L100.993,69.361L100.993,49.543ZM102.644,51.195L104.207,51.195L104.207,67.71L102.644,67.71L102.644,51.195ZM105.584,51.195L107.21,51.195L107.21,67.71L105.584,67.71L105.584,51.195ZM108.587,51.195L110.213,51.195L110.213,67.71L108.587,67.71L108.587,51.195ZM111.59,51.195L113.216,51.195L113.216,67.71L111.59,67.71L111.59,51.195ZM114.592,51.195L116.22,51.195L116.22,67.71L114.592,67.71L114.592,51.195ZM117.595,51.195L119.159,51.195L119.159,67.71L117.595,67.71L117.595,51.195Z" style="fill:rgb(35,163,194);"/>
                        <path d="M100.993,26.677L120.811,26.677L120.811,46.494L100.993,46.494L100.993,26.677ZM102.644,28.329L104.207,28.329L104.207,44.843L102.644,44.843L102.644,28.329ZM105.584,28.329L107.21,28.329L107.21,44.843L105.584,44.843L105.584,28.329ZM108.587,28.329L110.213,28.329L110.213,44.843L108.587,44.843L108.587,28.329ZM111.59,28.329L113.216,28.329L113.216,44.843L111.59,44.843L111.59,28.329ZM114.592,28.329L116.22,28.329L116.22,44.843L114.592,44.843L114.592,28.329ZM117.595,28.329L119.159,28.329L119.159,44.843L117.595,44.843L117.595,28.329Z" style="fill:rgb(52,187,222);"/>
                        <path d="M123.859,49.543L143.677,49.543L143.677,69.361L123.859,69.361L123.859,49.543ZM125.511,51.195L127.074,51.195L127.074,67.71L125.511,67.71L125.511,51.195ZM128.451,51.195L130.077,51.195L130.077,67.71L128.451,67.71L128.451,51.195ZM131.453,51.195L133.079,51.195L133.079,67.71L131.453,67.71L131.453,51.195ZM134.456,51.195L136.083,51.195L136.083,67.71L134.456,67.71L134.456,51.195ZM137.459,51.195L139.086,51.195L139.086,67.71L137.459,67.71L137.459,51.195ZM140.462,51.195L142.026,51.195L142.026,67.71L140.462,67.71L140.462,51.195Z" style="fill:rgb(52,187,222);"/>
                        <path d="M123.859,26.677L143.677,26.677L143.677,46.494L123.859,46.494L123.859,26.677ZM125.511,28.329L127.074,28.329L127.074,44.843L125.511,44.843L125.511,28.329ZM128.451,28.329L130.077,28.329L130.077,44.843L128.451,44.843L128.451,28.329ZM131.453,28.329L133.079,28.329L133.079,44.843L131.453,44.843L131.453,28.329ZM134.456,28.329L136.083,28.329L136.083,44.843L134.456,44.843L134.456,28.329ZM137.459,28.329L139.086,28.329L139.086,44.843L137.459,44.843L137.459,28.329ZM140.462,28.329L142.026,28.329L142.026,44.843L140.462,44.843L140.462,28.329Z" style="fill:rgb(35,163,194);"/>
                        <path d="M123.859,3.811L143.677,3.811L143.677,23.629L123.859,23.629L123.859,3.811ZM125.511,5.461L127.074,5.461L127.074,21.977L125.511,21.977L125.511,5.461ZM128.451,5.461L130.077,5.461L130.077,21.977L128.451,21.977L128.451,5.461ZM131.453,5.461L133.079,5.461L133.079,21.977L131.453,21.977L131.453,5.461ZM134.456,5.461L136.083,5.461L136.083,21.977L134.456,21.977L134.456,5.461ZM137.459,5.461L139.086,5.461L139.086,21.977L137.459,21.977L137.459,5.461ZM140.462,5.461L142.026,5.461L142.026,21.977L140.462,21.977L140.462,5.461Z" style="fill:rgb(52,187,222);"/>
                        <path d="M146.725,49.543L166.543,49.543L166.543,69.361L146.725,69.361L146.725,49.543ZM148.376,51.195L149.94,51.195L149.94,67.71L148.376,67.71L148.376,51.195ZM151.316,51.195L152.942,51.195L152.942,67.71L151.316,67.71L151.316,51.195ZM154.319,51.195L155.946,51.195L155.946,67.71L154.319,67.71L154.319,51.195ZM157.321,51.195L158.948,51.195L158.948,67.71L157.321,67.71L157.321,51.195ZM160.325,51.195L161.951,51.195L161.951,67.71L160.325,67.71L160.325,51.195ZM163.327,51.195L164.891,51.195L164.891,67.71L163.327,67.71L163.327,51.195Z" style="fill:rgb(35,163,194);"/>
                        <path d="M96.704,101.492C99.723,101.492 102.17,103.94 102.17,106.959C102.17,109.978 99.723,112.426 96.704,112.426C93.684,112.426 91.236,109.978 91.236,106.959C91.236,103.94 93.684,101.492 96.704,101.492" style="fill:rgb(211,236,236);"/>
                        <path d="M96.704,103.043C97.204,103.043 97.681,103.137 98.121,103.308C97.644,103.584 97.321,104.1 97.321,104.692C97.321,105.574 98.037,106.289 98.919,106.289C99.524,106.289 100.049,105.953 100.321,105.457C100.513,105.919 100.619,106.427 100.619,106.959C100.619,109.121 98.866,110.874 96.704,110.874C94.542,110.874 92.788,109.121 92.788,106.959C92.788,104.796 94.542,103.043 96.704,103.043" style="fill:rgb(54,69,72);"/>
                        <path d="M0,90.162L254.327,90.162C248.79,88.758 236.806,86.86 238.783,79.603C228.714,91.254 204.43,87.777 198.301,82.031C191.477,91.93 151.747,88.167 148.976,80.456C140.42,90.497 113.909,90.497 105.353,80.456C102.58,88.167 62.851,91.93 56.026,82.031C49.898,87.777 25.616,91.254 15.546,79.603C17.522,86.86 5.539,88.758 0,90.162" style="fill:rgb(54,69,72);"/>
                        <path d="M111.237,140.89C97.698,134.465 90.266,125.731 86.131,116.196C81.102,117.631 75.056,118.549 68.031,118.943C65.385,119.091 62.602,119.167 59.68,119.167C56.313,119.167 52.764,119.068 49.038,118.87C61.455,131.279 76.73,140.834 105.014,141.008C107.102,141.008 109.175,140.968 111.237,140.89" style="fill:rgb(189,217,215);"/>
                        <path d="M91.16,124.994C89.287,122.451 87.47,119.255 86.134,116.195C81.104,117.631 75.057,118.549 68.031,118.943C72.857,121.563 79.758,123.99 91.16,124.994" style="fill:rgb(211,236,236);"/>
                    </g>
                </g>
            </g>
        </g>
    </g>
</svg>
