<?xml version="1.0" encoding="UTF-8" standalone="no"?>
<!DOCTYPE svg PUBLIC "-//W3C//DTD SVG 1.1//EN" "http://www.w3.org/Graphics/SVG/1.1/DTD/svg11.dtd">
<svg width="100%" height="100%" viewBox="0 0 1920 803" version="1.1" xmlns="http://www.w3.org/2000/svg" xmlns:xlink="http://www.w3.org/1999/xlink" xml:space="preserve" xmlns:serif="http://www.serif.com/" style="fill-rule:evenodd;clip-rule:evenodd;stroke-miterlimit:1;">
    <g id="sonarr">
        <rect x="0" y="0" width="1920" height="803" style="fill:rgb(33,62,68);"/>
        <g transform="matrix(1,0,0,1,-12.084,-32.903)">
            <text x="871.956px" y="509.54px" style="font-family:'Helvetica-Light', 'Helvetica', sans-serif;font-weight:300;font-size:290.066px;fill:white;">sonarr</text>
        </g>
        <g transform="matrix(2,0,0,2,454.125,401.5)">
            <g transform="matrix(1,0,0,1,-108.35,-108.45)">
                <clipPath id="_clip1">
                    <rect x="0" y="0" width="216.7" height="216.9"/>
                </clipPath>
                <g clip-path="url(#_clip1)">
                    <path d="M216.7,108.45C216.7,138.283 206.167,163.85 185.1,185.15C184.4,185.983 183.617,186.75 182.75,187.45C179.284,190.85 175.617,193.934 171.75,196.7C153.483,210.167 132.383,216.9 108.45,216.9C84.483,216.9 63.417,210.167 45.25,196.7C40.45,193.3 35.95,189.45 31.75,185.15C15.383,168.884 5.333,149.983 1.6,128.45C0.867,124.25 0.383,119.983 0.15,115.65C0.05,113.25 0,110.85 0,108.45C0,105.917 0.05,103.5 0.15,101.2C0.15,100.967 0.216,100.733 0.35,100.5C1.917,73.9 12.383,50.917 31.75,31.55C53.05,10.517 78.617,0 108.45,0C138.383,0 163.934,10.517 185.1,31.55C206.167,52.983 216.7,78.617 216.7,108.45Z" style="fill:rgb(238,238,238);"/>
                    <path d="M194.65,42.5L172.25,64.9C159.152,77.998 158,89.4 158,109.5C158,127.434 160.852,143.852 174.2,157.2C183.946,166.946 193.2,176.15 193.2,176.15C190.7,179.217 188,182.217 185.1,185.15C184.4,185.983 183.617,186.75 182.75,187.45C180.217,189.95 177.583,192.267 174.85,194.4L157.3,176.85C141.702,161.25 129.304,159.75 108.7,159.75C88.93,159.75 75.477,161.572 61,176.05C52.353,184.697 42.45,194.65 42.45,194.65C38.683,191.783 35.117,188.616 31.75,185.15C28.95,182.35 26.333,179.483 23.9,176.55C23.9,176.55 33.698,166.702 43.05,157.35C56.902,143.497 59.15,127.434 59.15,109.5C59.15,92 56.276,75.677 43.55,62.95C34.715,54.114 22.5,41.95 22.5,41.95C25.333,38.35 28.417,34.883 31.75,31.55C34.684,28.683 37.684,26 40.75,23.5L61.1,43.85C74.102,56.852 90.767,60.2 108.7,60.2C127.167,60.2 143.777,56.623 157.3,43.1C165.62,34.78 176.6,23.85 176.6,23.85C179.5,26.217 182.333,28.783 185.1,31.55C188.567,35.083 191.75,38.733 194.65,42.5Z" style="fill:rgb(58,63,81);"/>
                    <g>
                        <path d="M78.7,114C78.5,112.833 78.368,111.65 78.3,110.45C78.268,109.783 78.25,109.117 78.25,108.45C78.25,107.75 78.268,107.083 78.3,106.45C78.3,106.383 78.318,106.317 78.35,106.25C78.785,98.883 81.684,92.517 87.05,87.15C92.95,81.317 100.034,78.4 108.3,78.4C116.6,78.4 123.684,81.317 129.55,87.15C135.384,93.084 138.3,100.183 138.3,108.45C138.3,116.717 135.384,123.8 129.55,129.7C129.35,129.933 129.134,130.15 128.9,130.35C127.934,131.283 126.918,132.133 125.85,132.9C120.785,136.633 114.934,138.5 108.3,138.5C101.666,138.5 95.834,136.634 90.8,132.9C89.468,131.966 88.218,130.9 87.05,129.7C82.518,125.2 79.734,119.966 78.7,114Z" style="fill:rgb(0,204,255);"/>
                        <path d="M157.8,59.75L142.8,74.4M30.785,32.526L71.65,73.25M156.25,157.5L184.058,186.28M185.913,32.386L157.8,59.75M32.35,185.75L59.7,158.35" style="fill:none;fill-rule:nonzero;stroke:rgb(0,204,255);stroke-width:2px;"/>
                        <path d="M157.8,59.75L140.85,76.95M58.97,60.604L76.17,77.754M59.623,158.43L76.373,141.03M138.301,139.634L156.329,157.579" style="fill:none;fill-rule:nonzero;stroke:rgb(0,204,255);stroke-width:7px;"/>
                    </g>
                </g>
            </g>
        </g>
    </g>
    <g id="lidarr">
        <rect x="0" y="0" width="1920" height="803" style="fill:rgb(20,59,42);"/>
        <g transform="matrix(1,0,0,1,-12.084,-32.903)">
            <text x="871.956px" y="509.54px" style="font-family:'Helvetica-Light', 'Helvetica', sans-serif;font-weight:300;font-size:290.066px;fill:white;">lidarr</text>
        </g>
        <g id="lidarr-group-logo" transform="matrix(0.407424,0,0,0.407424,245.893,193.275)">
            <circle id="lidarr-black-circle" cx="512" cy="512" r="410"/>
            <clipPath id="_clip2">
                <circle id="lidarr-honeycomb-a" cx="512" cy="512" r="410"/>
            </clipPath>
            <g clip-path="url(#_clip2)">
                <path d="M852.12,33.49L875.58,47.93L898.8,33.49L898.8,4.62L875.58,-9.82L852.12,4.62L852.12,33.49ZM805.68,4.62L782.46,-9.82L759.26,4.62L759.26,33.49L782.46,47.93L805.68,33.49L805.68,4.62L828.9,-9.82L852.12,4.62M805.68,33.49L828.9,47.93L852.12,33.49M805.68,90.98L805.68,119.85L828.9,134.29L852.12,119.85L852.12,90.98L828.9,76.8L805.68,90.98L782.46,76.8L759.26,90.98M852.12,119.85L875.58,134.29L898.8,119.85L898.8,90.98L875.58,76.8L852.12,90.98M875.58,47.93L875.58,76.8M828.9,47.93L828.9,76.8M898.8,4.62L922.02,-9.82L945.24,4.62L968.46,-9.82L991.68,4.62L1014.88,-9.82L1038.1,4.62L1038.1,33.49L1061.32,47.93L1061.32,76.8L1038.1,90.98L1038.1,119.85L1061.32,134.29L1061.32,163.16L1038.1,177.6L1038.1,206.47L1061.32,220.91L1061.32,249.78L1038.1,263.94L1038.1,292.81L1061.32,307.25L1061.32,336.12L1038.1,350.56L1038.1,379.43L1061.32,393.87L1061.32,422.74L1038.1,436.9L1038.1,465.77L1061.32,480.21L1061.32,509.08L1038.1,523.53L1038.1,552.4L1061.32,566.84L1061.32,595.71L1038.1,609.87L1038.1,638.74L1061.32,653.18L1061.32,682.05L1038.1,696.49L1038.1,725.36L1061.32,739.8L1061.32,768.67L1038.1,782.83L1038.1,811.7L1061.32,826.14L1061.32,855.01L1038.1,869.45L1038.1,898.32L1061.32,912.76L1061.32,941.63L1038.1,955.81L1038.1,984.68L1061.32,999.12L1061.32,1027.99L1038.1,1042.43L1014.88,1027.99L991.68,1042.43L968.46,1027.99L945.24,1042.43L922.02,1027.99L898.8,1042.43L875.58,1027.99L852.12,1042.43L828.9,1027.99L805.68,1042.43L782.46,1027.99L759.26,1042.43L736.04,1027.99L712.82,1042.43L689.6,1027.99L666.38,1042.43L643.16,1027.99L619.7,1042.43L596.48,1027.99L573.26,1042.43L550.04,1027.99L526.84,1042.43L503.62,1027.99L480.4,1042.43L457.18,1027.99L433.96,1042.43L410.74,1027.99L387.54,1042.43L364.32,1027.99L341.1,1042.43L317.88,1027.99L294.42,1042.43L271.2,1027.99L247.98,1042.43L224.76,1027.99L201.54,1042.43L178.32,1027.99L155.1,1042.43L131.9,1027.99L108.68,1042.43L85.46,1027.99L62,1042.43L38.78,1027.99L15.56,1042.43L-7.66,1027.99L-30.88,1042.43L-54.1,1027.99L-54.1,999.12L-77.32,984.68L-77.32,955.81L-54.1,941.63L-54.1,912.76L-77.32,898.32L-77.32,869.45L-54.1,855.01L-54.1,826.14L-77.32,811.7L-77.32,782.83L-54.1,768.67L-54.1,739.8L-77.32,725.36L-77.32,696.49L-54.1,682.05L-54.1,653.18L-77.32,638.74L-77.32,609.87L-54.1,595.71L-54.1,566.84L-77.32,552.4L-77.32,523.53L-54.1,509.08L-54.1,480.21L-77.32,465.77L-77.32,436.9L-54.1,422.74L-54.1,393.87L-77.32,379.43L-77.32,350.56L-54.1,336.12L-54.1,307.25L-77.32,292.81L-77.32,263.94L-54.1,249.78L-54.1,220.91L-77.32,206.47L-77.32,177.6L-54.1,163.16L-54.1,134.29L-77.32,119.85L-77.32,90.98L-54.1,76.8L-54.1,47.93L-77.32,33.49L-77.32,4.62L-54.1,-9.82L-30.88,4.62L-7.66,-9.82L15.56,4.62L38.78,-9.82L62,4.62L85.46,-9.82L108.68,4.62L131.9,-9.82L155.1,4.62L178.32,-9.82L201.54,4.62L224.76,-9.82L247.98,4.62L271.2,-9.82L294.42,4.62L317.88,-9.82L341.1,4.62L364.32,-9.82L387.54,4.62L410.74,-9.82L433.96,4.62L457.18,-9.82L480.4,4.62L503.62,-9.82L526.84,4.62L550.04,-9.82L573.26,4.62L596.48,-9.82L619.7,4.62L643.16,-9.82L666.38,4.62L689.6,-9.82L712.82,4.62L736.04,-9.82L759.26,4.62M712.82,4.62L712.82,33.49L736.04,47.93L759.26,33.49M712.82,90.98L712.82,119.85L736.04,134.29L759.26,119.85L759.26,90.98L736.04,76.8L712.82,90.98L689.6,76.8L666.38,90.98M782.46,47.93L782.46,76.8M736.04,47.93L736.04,76.8M759.26,177.59L759.26,206.46L782.46,220.9L805.68,206.46L805.68,177.59L782.46,163.15L759.26,177.59L736.04,163.15L712.82,177.59L712.82,206.46L736.04,220.9L759.26,206.46M805.68,119.85L782.46,134.29L782.46,163.16M759.26,119.85L782.46,134.29M736.04,134.29L736.04,163.16M736.04,220.9L736.04,249.77L759.26,263.93L782.46,249.77L782.46,220.9M828.9,134.29L828.9,163.16L852.12,177.6L875.58,163.16L875.58,134.29M828.9,163.16L805.68,177.6M782.46,249.78L805.68,263.94L828.9,249.78L828.9,220.91L805.68,206.47M852.12,177.6L852.12,206.47L875.58,220.91L898.8,206.47L898.8,177.6L875.58,163.16M875.58,220.9L875.58,249.77L898.8,263.93L922.02,249.77L922.02,220.9L898.8,206.46M828.9,220.9L852.12,206.46M666.38,4.62L666.38,33.49L689.6,47.93L712.82,33.49M573.26,4.62L573.26,33.49L596.48,47.93L619.7,33.49L619.7,4.62M619.7,33.49L643.16,47.93L666.38,33.49M619.7,90.98L619.7,119.85L643.16,134.29L666.38,119.85L666.38,90.98L643.16,76.8L619.7,90.98L596.48,76.8L573.26,90.98L573.26,119.85L596.48,134.29L619.7,119.85M596.48,47.93L596.48,76.8M689.6,47.93L689.6,76.8M643.16,47.93L643.16,76.8M526.84,4.62L526.84,33.49L550.04,47.93L573.26,33.49M480.4,4.62L480.4,33.49L503.62,47.93L526.84,33.49M503.62,76.8L480.4,90.98L480.4,119.85L503.62,134.29L526.84,119.85L526.84,90.98L503.62,76.8ZM573.26,90.98L550.04,76.8L526.84,90.98M503.62,47.93L503.62,76.8M550.04,47.93L550.04,76.8M573.26,119.85L550.04,134.29L550.04,163.16L573.26,177.6L596.48,163.16L596.48,134.29M503.62,134.29L503.62,163.16L526.84,177.6L550.04,163.16M503.62,249.77L526.84,263.93L550.04,249.77L550.04,220.9L526.84,206.46L503.62,220.9L503.62,249.77L480.4,263.93L480.4,292.8L503.62,307.24L526.84,292.8L526.84,263.93M550.04,220.9L573.26,206.46L573.26,177.59M526.84,119.85L550.04,134.29M526.84,206.47L526.84,177.6M643.16,134.29L643.16,163.16L666.38,177.6L689.6,163.16L689.6,134.29L666.38,119.85M573.26,206.46L596.48,220.9L619.7,206.46L619.7,177.59L596.48,163.15M643.16,163.15L619.7,177.59M643.16,249.77L666.38,263.93L689.6,249.77L689.6,220.9L666.38,206.46L643.16,220.9L643.16,249.77L619.7,263.93L619.7,292.8L596.48,307.24L596.48,336.11L619.7,350.55L643.16,336.11L643.16,307.24L619.7,292.8M550.04,249.77L573.26,263.93L596.48,249.77L596.48,220.9M619.7,206.46L643.16,220.9M666.38,206.46L666.38,177.59M666.38,263.93L666.38,292.8L689.6,307.24L712.82,292.8L712.82,263.93L689.6,249.77M619.7,350.54L619.7,379.41L643.16,393.85L666.38,379.41L666.38,350.54L643.16,336.1M666.38,379.41L689.6,393.85L712.82,379.41L712.82,350.54L689.6,336.1L666.38,350.54M643.16,307.23L666.38,292.79M689.6,307.23L689.6,336.1M596.48,307.23L573.26,292.79L550.04,307.23L550.04,336.1L573.26,350.54L596.48,336.1M573.26,292.79L573.26,263.92M503.62,336.1L480.4,350.54L480.4,379.41L503.62,393.85L526.84,379.41L526.84,350.54L503.62,336.1ZM526.84,379.41L550.04,393.85L573.26,379.41L573.26,350.54M503.62,307.23L503.62,336.1M550.04,336.1L526.84,350.54M526.84,292.8L550.04,307.24M550.04,422.72L526.84,436.88L526.84,465.75L550.04,480.19L573.26,465.75L573.26,436.88L550.04,422.72ZM550.04,393.85L550.04,422.72M503.62,393.85L503.62,422.72L526.84,436.88M526.84,465.75L503.62,480.19L503.62,509.06L526.84,523.51L550.04,509.06L550.04,480.19M666.38,436.88L666.38,465.75L689.6,480.19L712.82,465.75L712.82,436.88L689.6,422.72L666.38,436.88ZM689.6,393.85L689.6,422.72M619.7,379.41L596.48,393.85L596.48,422.72L619.7,436.88L643.16,422.72L643.16,393.85M573.26,465.75L596.48,480.19L619.7,465.75L619.7,436.88M666.38,465.75L643.16,480.19L643.16,509.06L666.38,523.51L689.6,509.06L689.6,480.19M550.04,509.06L573.26,523.51L596.48,509.06L596.48,480.19M619.7,465.75L643.16,480.19M643.16,422.72L666.38,436.88M573.26,379.41L596.48,393.85M596.48,422.72L573.26,436.88M875.57,249.77L852.11,263.93L852.11,292.8L875.57,307.24L898.79,292.8L898.79,263.93M805.67,263.93L805.67,292.8L828.89,307.24L852.11,292.8M805.67,379.41L828.89,393.85L852.11,379.41L852.11,350.54L828.89,336.1L805.67,350.54L805.67,379.41L782.45,393.85L782.45,422.72M852.11,379.41L875.57,393.85L898.79,379.41L898.79,350.54L875.57,336.1L852.11,350.54M875.57,307.23L875.57,336.1M828.89,307.23L828.89,336.1M759.25,263.92L759.25,292.79L782.45,307.23L805.67,292.79M712.81,292.79L736.03,307.23L759.25,292.79M712.81,379.4L736.03,393.84L759.25,379.4L759.25,350.53L736.03,336.09L712.81,350.53M805.67,350.53L782.45,336.09L759.25,350.53M782.45,307.22L782.45,336.09M736.03,307.22L736.03,336.09M759.25,436.86L759.25,465.73L782.45,480.17L805.67,465.73L805.67,436.86L782.45,422.7L759.25,436.86L736.03,422.7L712.81,436.86M736.03,393.83L736.03,422.7M759.25,465.73L736.03,480.17L736.03,509.04L759.25,523.49L782.45,509.04L782.45,480.17M712.81,465.73L736.03,480.17M875.56,393.83L875.56,422.7L898.78,436.86L922,422.7L922,393.83L898.78,379.39M875.56,422.7L852.1,436.86L852.1,465.73L875.56,480.17L898.78,465.73L898.78,436.86M828.88,393.83L828.88,422.7L852.1,436.86M828.88,422.7L805.66,436.86M852.1,465.73L828.88,480.17L828.88,509.04L852.1,523.49L875.56,509.04L875.56,480.17M805.66,465.73L828.88,480.17M759.24,379.4L782.44,393.84M712.8,177.58L689.58,163.14M689.58,220.88L712.8,206.44M689.58,134.26L712.8,119.82M828.88,249.74L852.1,263.9M736.02,249.74L712.8,263.9M619.68,263.9L596.46,249.74M1014.85,47.9L991.65,33.46L968.43,47.9L968.43,76.77L991.65,90.95L1014.85,76.77L1014.85,47.9L1038.07,33.46M1038.07,90.95L1014.85,76.77M991.65,4.59L991.65,33.46M898.77,33.46L921.99,47.9L945.21,33.46L945.21,4.59M898.77,119.82L921.99,134.26L945.21,119.82L945.21,90.95L921.99,76.77L898.77,90.95M945.21,90.95L968.43,76.77M921.99,47.9L921.99,76.77M945.21,33.46L968.43,47.9M968.43,134.26L968.43,163.13L991.65,177.57L1014.85,163.13L1014.85,134.26L991.65,119.82L968.43,134.26L945.21,119.82M921.99,220.87L945.21,206.43L945.21,177.56L921.99,163.12L898.77,177.56M921.99,134.25L921.99,163.12M968.43,220.86L968.43,249.73L991.65,263.89L1014.85,249.73L1014.85,220.86L991.65,206.42L968.43,220.86L945.21,206.42M991.65,177.55L991.65,206.42M945.21,177.55L968.43,163.11M1038.07,177.55L1014.85,163.11M1014.85,134.24L1038.07,119.8M1014.85,220.85L1038.07,206.41M991.65,90.93L991.65,119.8M991.65,263.88L991.65,292.75L1014.85,307.19L1038.07,292.75M991.65,292.75L968.43,307.19L968.43,336.06L991.65,350.5L1014.85,336.06L1014.85,307.19M1038.07,350.5L1014.85,336.06M898.77,292.75L921.99,307.19L945.21,292.75L945.21,263.88L921.99,249.72M921.99,393.8L945.21,379.36L945.21,350.49L921.99,336.05L898.77,350.49M991.65,350.49L991.65,379.36L1014.85,393.8L1038.07,379.36M945.21,350.49L968.43,336.05M921.99,307.18L921.99,336.05M945.21,292.74L968.43,307.18M921.99,422.66L945.21,436.82L968.43,422.66L968.43,393.79L945.21,379.35M945.21,436.82L945.21,465.69L968.43,480.13L991.65,465.69L991.65,436.82L968.43,422.66M898.77,465.69L921.99,480.13L945.21,465.69M921.99,480.13L921.99,509L945.21,523.45L968.43,509L968.43,480.13M991.65,436.82L1014.85,422.66L1014.85,393.79M1038.07,436.82L1014.85,422.66M991.65,465.69L1014.85,480.13L1038.07,465.69M968.43,509L991.65,523.45L1014.85,509L1014.85,480.13M968.43,393.79L991.65,379.35M1038.07,263.87L1014.85,249.71M945.21,263.87L968.43,249.71M1014.85,566.75L991.65,552.31L968.43,566.75L968.43,595.62L991.65,609.78L1014.85,595.62L1014.85,566.75L1038.07,552.31M1038.07,609.78L1014.85,595.62M991.65,523.44L991.65,552.31M945.21,523.44L945.21,552.31L968.43,566.75M898.77,552.31L875.55,566.75L875.55,595.62L898.77,609.78L921.99,595.62L921.99,566.75L898.77,552.31L898.77,523.44L875.55,508.99M945.21,552.31L921.99,566.75M968.43,595.62L945.21,609.78L945.21,638.65L968.43,653.09L991.65,638.65L991.65,609.78M875.55,595.62L852.09,609.78L852.09,638.65L875.55,653.09L898.77,638.65L898.77,609.78M921.99,595.62L945.21,609.78M968.43,681.96L945.21,696.4L945.21,725.27L968.43,739.71L991.65,725.27L991.65,696.4L968.43,681.96ZM968.43,653.09L968.43,681.96M945.21,638.65L921.99,653.09L921.99,681.96L945.21,696.4M921.99,681.96L898.77,696.4L898.77,725.27L921.99,739.71L945.21,725.27M921.99,739.71L921.99,768.58L945.21,782.74L968.43,768.58L968.43,739.71M991.65,696.4L1014.85,681.96L1014.85,653.09L991.65,638.65M1038.07,696.39L1014.85,681.95M968.43,768.56L991.65,782.72L1014.85,768.56L1014.85,739.69L991.65,725.25M1014.85,739.69L1038.07,725.25M898.77,638.64L921.99,653.08M1014.85,653.08L1038.07,638.64M991.65,782.72L991.65,811.59L1014.85,826.03L1038.07,811.59M1038.07,869.33L1014.85,854.89L991.65,869.33L991.65,898.2L1014.85,912.64L1038.07,898.2M1014.85,854.89L1014.85,826.02M991.65,811.58L968.43,826.02L968.43,854.89L991.65,869.33M921.99,768.56L898.77,782.72L898.77,811.59L921.99,826.03L945.21,811.59L945.21,782.72M921.99,912.64L945.21,898.2L945.21,869.33L921.99,854.89L898.77,869.33L898.77,898.2L921.99,912.64L921.99,941.51L945.21,955.69L968.43,941.51M945.21,898.2L968.43,912.64L991.65,898.2M968.43,854.89L945.21,869.33M945.21,811.59L968.43,826.03M921.99,826.03L921.99,854.9M968.43,912.64L968.43,941.51L991.65,955.69L1014.85,941.51L1014.85,912.64M898.77,898.2L875.55,912.64L875.55,941.51L898.77,955.69L921.99,941.51M898.77,955.69L898.77,984.56L921.99,999L945.21,984.56L945.21,955.69M921.99,999L921.99,1027.87M1014.85,1027.87L1014.85,999L991.65,984.56L968.43,999L968.43,1027.87M991.65,955.69L991.65,984.56M968.43,999L945.21,984.56M1038.07,955.69L1014.85,941.51M1014.85,999L1038.07,984.56M1038.07,782.72L1014.85,768.56M852.09,523.44L852.09,552.31L875.55,566.75M828.87,508.99L805.65,523.44L805.65,552.31L828.87,566.75L852.09,552.31M852.09,609.78L828.87,595.62L805.65,609.78L805.65,638.65L828.87,653.09L852.09,638.65M828.87,595.62L828.87,566.75M759.23,523.44L759.23,552.31L782.43,566.75L805.65,552.31M736.01,508.99L712.79,523.44L712.79,552.31L736.01,566.75L759.23,552.31M712.79,638.65L736.01,653.09L759.23,638.65L759.23,609.78L736.01,595.62L712.79,609.78L712.79,638.65L689.57,653.09L689.57,681.96M759.23,609.78L782.43,595.62L782.43,566.75M736.01,566.75L736.01,595.62M759.23,696.39L759.23,725.26L782.43,739.7L805.65,725.26L805.65,696.39L782.43,681.95L759.23,696.39ZM805.65,638.65L782.43,653.09L782.43,681.96M736.01,653.09L736.01,681.96L759.23,696.4M736.01,681.96L712.79,696.4L712.79,725.27L736.01,739.71L759.23,725.27M736.01,739.71L736.01,768.58L759.23,782.74L782.43,768.58L782.43,739.71M875.55,653.1L875.55,681.97L898.77,696.41M875.55,681.97L852.09,696.41L852.09,725.28L875.55,739.72L898.77,725.28M805.65,696.41L828.87,681.97L828.87,653.1M852.09,725.28L828.87,739.72L828.87,768.59L852.09,782.75L875.55,768.59L875.55,739.72M805.65,725.28L828.87,739.72M852.09,696.41L828.87,681.97M759.23,638.66L782.43,653.1M782.43,595.63L805.65,609.79M643.13,509L619.67,523.45L619.67,552.32L643.13,566.76L666.35,552.32L666.35,523.45M643.13,566.76L643.13,595.63L666.35,609.79L689.57,595.63L689.57,566.76L666.35,552.32M573.23,523.45L573.23,552.32L596.45,566.76L619.67,552.32M643.13,595.63L619.67,609.79L619.67,638.66L643.13,653.1L666.35,638.66L666.35,609.79M619.67,609.79L596.45,595.63L573.23,609.79L573.23,638.66L596.45,653.1L619.67,638.66M596.45,595.63L596.45,566.76M573.23,552.32L550.01,566.76L550.01,595.63L573.23,609.79M503.59,509L480.37,523.45L480.37,552.32L503.59,566.76L526.81,552.32L526.81,523.45M526.81,609.79L503.59,595.63L480.37,609.79L480.37,638.66L503.59,653.1L526.81,638.66L526.81,609.79L550.01,595.63M550.01,566.76L526.81,552.32M503.59,566.76L503.59,595.63M550.01,681.97L526.81,696.41L526.81,725.28L550.01,739.72L573.23,725.28L573.23,696.41L550.01,681.97ZM573.23,638.66L550.01,653.1L550.01,681.97M503.59,653.1L503.59,681.97L526.81,696.41M526.81,725.28L503.59,739.72L503.59,768.59L526.81,782.75L550.01,768.59L550.01,739.72M712.78,696.41L689.56,681.97L666.34,696.41L666.34,725.28L689.56,739.72L712.78,725.28M596.44,653.1L596.44,681.97L619.66,696.41L643.12,681.97L643.12,653.1M596.44,768.58L619.66,782.74L643.12,768.58L643.12,739.71L619.66,725.27L596.44,739.71L596.44,768.58L573.22,782.74L573.22,811.61L596.44,826.05L619.66,811.61M643.12,768.58L666.34,782.74L689.56,768.58L689.56,739.71M643.12,739.71L666.34,725.27M619.66,696.4L619.66,725.27M666.34,696.4L643.12,681.96M666.34,638.65L689.56,653.09M596.44,681.96L573.22,696.4M573.22,725.27L596.44,739.71M526.8,638.66L550,653.1M666.34,811.62L643.12,826.06L643.12,854.93L666.34,869.37L689.56,854.93L689.56,826.06L666.34,811.62L666.34,782.75M619.66,782.75L619.66,811.62L643.12,826.06M643.12,854.93L619.66,869.37L619.66,898.24L643.12,912.68L666.34,898.24L666.34,869.37M619.66,869.37L596.44,854.93L573.22,869.37L573.22,898.24L596.44,912.68L619.66,898.24M643.12,912.68L643.12,941.55L666.34,955.73L689.56,941.55L689.56,912.68L666.34,898.24M596.44,854.93L596.44,826.06M526.8,782.75L526.8,811.62L550,826.06L573.22,811.62M503.58,768.59L480.36,782.75L480.36,811.62L503.58,826.06L526.8,811.62M503.58,854.93L480.36,869.37L480.36,898.24L503.58,912.68L526.8,898.24L526.8,869.37L503.58,854.93ZM573.22,898.24L550,912.68L550,941.55L573.22,955.73L596.44,941.55L596.44,912.68M550,826.07L550,854.94L573.22,869.38M503.58,826.07L503.58,854.94M526.8,869.38L550,854.94M550,912.68L526.8,898.24M503.58,912.68L503.58,941.55L526.8,955.73L550,941.55M550,1027.91L550,999.04L526.8,984.6L503.58,999.04L503.58,1027.91M596.44,1027.91L596.44,999.04L573.22,984.6L550,999.04M526.8,984.6L526.8,955.73M573.22,984.6L573.22,955.73M596.44,999.04L619.66,984.6L619.66,955.73L596.44,941.55M643.12,941.55L619.66,955.73M643.12,1027.91L643.12,999.04L619.66,984.6M736,1027.91L736,999.04L712.78,984.6L689.56,999.04L689.56,1027.91M666.34,955.73L666.34,984.6L689.56,999.04M643.12,999.04L666.34,984.6M852.08,782.76L852.08,811.63L875.54,826.07L898.76,811.63M828.86,768.6L805.64,782.76L805.64,811.63L828.86,826.07L852.08,811.63M828.86,912.68L852.08,898.24L852.08,869.37L828.86,854.93L805.64,869.37L805.64,898.24L828.86,912.68L828.86,941.55L852.08,955.73L875.54,941.55M898.76,869.37L875.54,854.93L852.08,869.37M852.08,898.24L875.54,912.68M875.54,854.94L875.54,826.07M828.86,826.07L828.86,854.94M759.22,782.76L759.22,811.63L782.42,826.07L805.64,811.63M736,768.6L712.78,782.76L712.78,811.63L736,826.07L759.22,811.63M712.78,869.37L712.78,898.24L736,912.68L759.22,898.24L759.22,869.37L736,854.93L712.78,869.37L689.56,854.93M805.64,869.37L782.42,854.93L759.22,869.37M759.22,898.24L782.42,912.68L805.64,898.24M782.42,826.06L782.42,854.93M736,826.06L736,854.93M736,912.67L736,941.54L759.22,955.72L782.42,941.54L782.42,912.67M736,941.54L712.78,955.72L712.78,984.59M782.42,1027.9L782.42,999.03L759.22,984.59L736,999.03M759.22,984.59L759.22,955.72M782.42,941.54L805.64,955.72L828.86,941.54M805.64,955.72L805.64,984.59L828.86,999.03L852.08,984.59L852.08,955.72M828.86,999.03L828.86,1027.9M875.54,1027.9L875.54,999.03L852.08,984.59M782.42,999.03L805.64,984.59M712.78,609.8L689.56,595.64M689.56,566.77L712.78,552.33M689.56,912.67L712.78,898.23M689.56,826.05L712.78,811.61M712.78,782.74L689.56,768.58M805.64,782.74L782.42,768.58M573.22,782.74L550,768.58M712.77,955.71L689.55,941.53M875.52,999.02L898.74,984.58M898.74,782.74L875.52,768.58M921.96,509L898.74,523.45M712.77,523.45L689.55,509M805.63,523.45L782.41,509M1038.05,523.45L1014.83,509M619.66,523.45L596.44,509M15.53,4.56L15.53,33.43L38.75,47.87L61.97,33.43L61.97,4.56M61.97,33.43L85.43,47.87L108.65,33.43L108.65,4.56M-30.91,4.56L-30.91,33.43L-7.69,47.87L15.53,33.43M-7.69,76.74L-30.91,90.92L-30.91,119.79L-7.69,134.23L15.53,119.79L15.53,90.92L-7.69,76.74ZM15.53,119.79L38.75,134.23L61.97,119.79L61.97,90.92L38.75,76.74L15.53,90.92M61.97,119.79L85.43,134.23L108.65,119.79L108.65,90.92L85.43,76.74L61.97,90.92M-7.69,47.87L-7.69,76.74M38.75,47.87L38.75,76.74M85.43,47.87L85.43,76.74M-54.13,47.87L-30.91,33.43M-30.91,90.92L-54.13,76.74M-54.13,220.84L-30.91,206.4L-30.91,177.53L-54.13,163.09M-54.13,134.22L-30.91,119.78M38.75,163.09L15.53,177.53L15.53,206.4L38.75,220.84L61.97,206.4L61.97,177.53L38.75,163.09L38.75,134.22M61.97,206.4L85.43,220.84L108.65,206.4L108.65,177.53L85.43,163.09L61.97,177.53M85.43,134.22L85.43,163.09M-7.69,134.22L-7.69,163.09L15.53,177.53M15.53,206.4L-7.69,220.84L-7.69,249.71L15.53,263.87L38.75,249.71L38.75,220.84M85.43,220.84L85.43,249.71L108.65,263.87L131.87,249.71L131.87,220.84L108.65,206.4M-7.69,163.09L-30.91,177.53M-30.91,206.4L-7.69,220.84M61.97,292.74L38.75,307.18L38.75,336.05L61.97,350.49L85.43,336.05L85.43,307.18L61.97,292.74ZM85.43,249.71L61.97,263.87L61.97,292.74M-7.69,249.71L-30.91,263.87L-30.91,292.74L-7.69,307.18L15.53,292.74L15.53,263.87M15.53,350.48L-7.69,336.04L-30.91,350.48L-30.91,379.35L-7.69,393.79L15.53,379.35L15.53,350.48L38.75,336.04M61.97,350.48L61.97,379.35L85.43,393.79L108.65,379.35L108.65,350.48L85.43,336.04M-7.69,307.17L-7.69,336.04M38.75,307.17L15.53,292.73M-54.13,307.17L-30.91,292.73M-30.91,350.47L-54.13,336.03M-54.13,480.11L-30.91,465.67L-30.91,436.8L-54.13,422.64M61.97,436.8L61.97,465.67L85.43,480.11L108.65,465.67L108.65,436.8L85.43,422.64L61.97,436.8ZM85.43,393.77L85.43,422.64M61.97,379.33L38.75,393.77L38.75,422.64L61.97,436.8M-7.69,393.77L-7.69,422.64L15.53,436.8L38.75,422.64M-7.69,480.11L-7.69,508.98L15.53,523.43L38.75,508.98L38.75,480.11L15.53,465.67L-7.69,480.11ZM85.43,480.11L85.43,508.98L108.65,523.43L131.87,508.98L131.87,480.11L108.65,465.67M38.75,480.11L61.97,465.67M15.53,436.8L15.53,465.67M15.53,379.33L38.75,393.77M-7.69,422.64L-30.91,436.8M-30.91,465.67L-7.69,480.11M-54.13,393.77L-30.91,379.33M61.97,263.85L38.75,249.69M-30.91,263.85L-54.13,249.69M433.92,4.54L433.92,33.41L457.14,47.85L480.36,33.41M387.5,4.54L387.5,33.41L410.7,47.85L433.92,33.41M410.7,76.72L387.5,90.9L387.5,119.77L410.7,134.21L433.92,119.77L433.92,90.9L410.7,76.72L410.7,47.85M480.36,90.9L457.14,76.72L433.92,90.9M457.14,76.72L457.14,47.85M341.06,4.54L341.06,33.41L364.28,47.85L387.5,33.41M294.38,4.54L294.38,33.41L317.84,47.85L341.06,33.41M294.38,90.9L294.38,119.77L317.84,134.21L341.06,119.77L341.06,90.9L317.84,76.72L294.38,90.9L271.16,76.72L247.94,90.9M387.5,90.9L364.28,76.72L341.06,90.9M317.84,47.85L317.84,76.72M364.28,47.85L364.28,76.72M387.5,119.77L364.28,134.21L364.28,163.08L387.5,177.52L410.7,163.08L410.7,134.21M341.06,119.77L364.28,134.21M364.28,163.08L341.06,177.52L341.06,206.39L364.28,220.83L387.5,206.39L387.5,177.52M294.38,119.78L271.16,134.22L271.16,163.09L294.38,177.53L317.84,163.09L317.84,134.22M341.06,206.4L317.84,220.84L317.84,249.71L341.06,263.87L364.28,249.71L364.28,220.84M294.38,177.53L294.38,206.4L317.84,220.84M341.06,177.53L317.84,163.09M433.92,119.78L457.14,134.22L480.36,119.78M457.14,163.09L433.92,177.53L433.92,206.4L457.14,220.84L480.36,206.4L480.36,177.53L457.14,163.09L457.14,134.22M410.7,163.09L433.92,177.53M433.92,206.4L410.7,220.84L410.7,249.71L433.92,263.87L457.14,249.71L457.14,220.84M410.7,220.84L387.5,206.4M247.94,4.56L247.94,33.43L271.16,47.87L294.38,33.43M201.5,4.56L201.5,33.43L224.72,47.87L247.94,33.43M201.5,90.92L201.5,119.79L224.72,134.23L247.94,119.79L247.94,90.92L224.72,76.74L201.5,90.92L178.28,76.74L155.06,90.92M271.16,47.87L271.16,76.74M224.72,47.87L224.72,76.74M155.06,4.56L155.06,33.43L178.28,47.87L201.5,33.43M108.64,33.43L131.86,47.87L155.06,33.43M108.64,119.79L131.86,134.23L155.06,119.79L155.06,90.92L131.86,76.74L108.64,90.92M178.28,47.87L178.28,76.74M131.86,47.87L131.86,76.74M155.06,119.79L178.28,134.23L201.5,119.79M178.28,134.23L178.28,163.1L201.5,177.54L224.72,163.1L224.72,134.23M178.28,163.1L155.06,177.54L155.06,206.41L178.28,220.85L201.5,206.41L201.5,177.54M108.64,177.54L131.86,163.1L131.86,134.23M178.28,220.84L178.28,249.71L201.5,263.87L224.72,249.71L224.72,220.84L201.5,206.4M155.06,177.53L131.86,163.09M131.86,220.83L155.06,206.39M247.94,119.78L271.16,134.22M271.16,163.09L247.94,177.53L247.94,206.4L271.16,220.84L294.38,206.4M224.72,249.71L247.94,263.87L271.16,249.71L271.16,220.84M224.72,163.1L247.94,177.54M224.72,220.85L247.94,206.41M247.94,263.88L247.94,292.75L271.16,307.19L294.38,292.75L294.38,263.88L271.16,249.72M201.5,263.88L201.5,292.75L224.72,307.19L247.94,292.75M201.5,379.36L224.72,393.8L247.94,379.36L247.94,350.49L224.72,336.05L201.5,350.49L201.5,379.36L178.28,393.8L178.28,422.67M247.94,379.36L271.16,393.8L294.38,379.36L294.38,350.49L271.16,336.05L247.94,350.49M271.16,307.18L271.16,336.05M224.72,307.18L224.72,336.05M178.28,249.71L155.06,263.87L155.06,292.74L178.28,307.18L201.5,292.74M108.64,263.87L108.64,292.74L131.86,307.18L155.06,292.74M108.64,379.35L131.86,393.79L155.06,379.35L155.06,350.48L131.86,336.04L108.64,350.48M201.5,350.48L178.28,336.04L155.06,350.48M131.86,307.17L131.86,336.04M178.28,307.17L178.28,336.04M155.06,436.81L155.06,465.68L178.28,480.12L201.5,465.68L201.5,436.81L178.28,422.65L155.06,436.81L131.86,422.65L108.64,436.81M131.86,393.78L131.86,422.65M178.28,480.12L178.28,508.99L201.5,523.44L224.72,508.99L224.72,480.12L201.5,465.68M131.86,480.12L155.06,465.68M271.16,393.78L271.16,422.65L294.38,436.81L317.84,422.65L317.84,393.78L294.38,379.34M271.16,422.65L247.94,436.81L247.94,465.68L271.16,480.12L294.38,465.68L294.38,436.81M247.94,436.81L224.72,422.65L201.5,436.81M224.72,393.78L224.72,422.65M271.16,480.12L271.16,508.99L294.38,523.44L317.84,508.99L317.84,480.12L294.38,465.68M224.72,480.12L247.94,465.68M155.06,379.34L178.28,393.78M433.92,263.86L433.92,292.73L457.14,307.17L480.36,292.73M433.92,292.73L410.7,307.17L410.7,336.04L433.92,350.48L457.14,336.04L457.14,307.17M410.7,336.04L387.5,350.48L387.5,379.35L410.7,393.79L433.92,379.35L433.92,350.48M480.36,350.48L457.14,336.04M341.06,263.86L341.06,292.73L364.28,307.17L387.5,292.73L387.5,263.86L364.28,249.7M294.38,292.73L317.84,307.17L341.06,292.73M317.84,393.78L341.06,379.34L341.06,350.47L317.84,336.03L294.38,350.47M387.5,350.47L364.28,336.03L341.06,350.47M317.84,307.16L317.84,336.03M364.28,307.16L364.28,336.03M387.5,379.34L364.28,393.78L364.28,422.65L387.5,436.81L410.7,422.65L410.7,393.78M364.28,422.65L341.06,436.81L341.06,465.68L364.28,480.12L387.5,465.68L387.5,436.81M364.28,480.12L364.28,508.99L387.5,523.44L410.7,508.99L410.7,480.12L387.5,465.68M341.06,436.81L317.84,422.65M317.84,480.12L341.06,465.68M457.14,422.65L433.92,436.81L433.92,465.68L457.14,480.12L480.36,465.68L480.36,436.81L457.14,422.65L457.14,393.78L433.92,379.34M433.92,436.81L410.7,422.65M410.7,480.12L433.92,465.68M410.7,508.99L433.92,523.44L457.14,508.99L457.14,480.12M457.14,393.78L480.36,379.34M341.06,379.34L364.28,393.78M410.7,307.17L387.5,292.73M155.06,263.86L131.86,249.7M480.36,263.86L457.14,249.7M317.84,249.7L294.38,263.86M410.7,249.7L387.5,263.86M85.43,307.17L108.65,292.73M433.92,523.43L433.92,552.3L457.14,566.74L480.36,552.3M433.92,552.3L410.7,566.74L410.7,595.61L433.92,609.77L457.14,595.61L457.14,566.74M410.7,595.61L387.5,609.77L387.5,638.64L410.7,653.08L433.92,638.64L433.92,609.77M480.36,609.77L457.14,595.61M387.5,523.43L387.5,552.3L410.7,566.74M387.5,552.3L364.28,566.74L364.28,595.61L387.5,609.77M364.28,566.74L341.06,552.3L317.84,566.74L317.84,595.61L341.06,609.77L364.28,595.61M341.06,552.3L341.06,523.43L317.84,508.98M294.38,523.43L294.38,552.3L317.84,566.74M317.84,595.61L294.38,609.77L294.38,638.64L317.84,653.08L341.06,638.64L341.06,609.77M341.06,696.38L341.06,725.25L364.28,739.69L387.5,725.25L387.5,696.38L364.28,681.94L341.06,696.38L317.84,681.94L294.38,696.38L294.38,725.25L317.84,739.69L341.06,725.25M387.5,638.64L364.28,653.08L364.28,681.95M317.84,653.08L317.84,681.95M294.38,725.26L271.16,739.7L271.16,768.57L294.38,782.73L317.84,768.57L317.84,739.7M364.28,739.7L364.28,768.57L387.5,782.73L410.7,768.57L410.7,739.7L387.5,725.26M457.14,681.95L433.92,696.39L433.92,725.26L457.14,739.7L480.36,725.26L480.36,696.39L457.14,681.95L457.14,653.08L433.92,638.64M410.7,653.08L410.7,681.95L433.92,696.39M410.7,739.7L433.92,725.26M410.7,768.57L433.92,782.73L457.14,768.57L457.14,739.7M341.06,638.65L364.28,653.09M410.7,681.96L387.5,696.4M457.14,653.09L480.36,638.65M271.16,508.99L247.94,523.44L247.94,552.31L271.16,566.75L294.38,552.31M201.5,523.44L201.5,552.31L224.72,566.75L247.94,552.31M201.5,552.31L178.28,566.75L178.28,595.62L201.5,609.78L224.72,595.62L224.72,566.75M178.28,595.62L155.06,609.78L155.06,638.65L178.28,653.09L201.5,638.65L201.5,609.78M294.38,609.78L271.16,595.62L247.94,609.78L247.94,638.65L271.16,653.09L294.38,638.65M271.16,566.75L271.16,595.62M224.72,595.62L247.94,609.78M178.28,508.99L155.06,523.44L155.06,552.31L178.28,566.75M108.64,552.31L85.42,566.75L85.42,595.62L108.64,609.78L131.86,595.62L131.86,566.75L108.64,552.31L108.64,523.44M108.64,609.78L108.64,638.65L131.86,653.09L155.06,638.65M155.06,609.78L131.86,595.62M131.86,566.75L155.06,552.31M155.06,696.39L155.06,725.26L178.28,739.7L201.5,725.26L201.5,696.39L178.28,681.95L155.06,696.39ZM178.28,653.08L178.28,681.95M131.86,653.08L131.86,681.95L155.06,696.39M131.86,681.95L108.64,696.39L108.64,725.26L131.86,739.7L155.06,725.26M108.64,725.26L85.42,739.7L85.42,768.57L108.64,782.73L131.86,768.57L131.86,739.7M178.28,739.7L178.28,768.57L201.5,782.73L224.72,768.57L224.72,739.7L201.5,725.26M271.16,653.08L271.16,681.95L294.38,696.39M271.16,681.95L247.94,696.39L247.94,725.26L271.16,739.7M247.94,696.39L224.72,681.95L201.5,696.39M247.94,638.65L224.72,653.09L224.72,681.96M224.72,739.7L247.94,725.26M201.5,638.65L224.72,653.09M201.5,782.73L201.5,811.6L224.72,826.04L247.94,811.6L247.94,782.73L224.72,768.57M247.94,811.6L271.16,826.04L294.38,811.6L294.38,782.73M201.5,898.21L224.72,912.65L247.94,898.21L247.94,869.34L224.72,854.9L201.5,869.34L201.5,898.21ZM247.94,898.21L271.16,912.65L294.38,898.21L294.38,869.34L271.16,854.9L247.94,869.34M271.16,826.03L271.16,854.9M224.72,826.03L224.72,854.9M108.64,782.72L108.64,811.59L131.86,826.03L155.06,811.59L155.06,782.72L131.86,768.56M155.06,811.59L178.28,826.03L201.5,811.59M108.64,811.59L85.42,826.03L85.42,854.9L108.64,869.34L131.86,854.9L131.86,826.03M85.42,854.9L61.96,869.34L61.96,898.21L85.42,912.65L108.64,898.21L108.64,869.34M85.42,912.65L85.42,941.52L108.64,955.7L131.86,941.52L131.86,912.65L108.64,898.21M201.5,869.34L178.28,854.9L155.06,869.34L155.06,898.21L178.28,912.65L201.5,898.21M178.28,826.03L178.28,854.9M131.86,912.64L155.06,898.2M155.06,869.33L131.86,854.89M155.06,955.68L155.06,984.55L178.28,998.99L201.5,984.55L201.5,955.68L178.28,941.5L155.06,955.68L131.86,941.5M108.64,955.68L108.64,984.55L131.86,998.99L155.06,984.55M131.86,998.99L131.86,1027.86M178.28,998.99L178.28,1027.86M224.72,912.63L224.72,941.5L247.94,955.68L271.16,941.5L271.16,912.63M201.5,955.68L224.72,941.5M201.5,984.55L224.72,998.99L247.94,984.55L247.94,955.68M224.72,998.99L224.72,1027.86M271.16,1027.86L271.16,998.99L247.94,984.55M178.28,912.63L178.28,941.5M433.92,782.71L433.92,811.58L457.14,826.02L480.36,811.58M387.5,782.71L387.5,811.58L410.7,826.02L433.92,811.58M410.7,854.89L387.5,869.33L387.5,898.2L410.7,912.64L433.92,898.2L433.92,869.33L410.7,854.89L410.7,826.02M480.36,869.33L457.14,854.89L433.92,869.33M433.92,898.2L457.14,912.64L480.36,898.2M457.14,854.89L457.14,826.02M364.28,768.55L341.06,782.71L341.06,811.58L364.28,826.02L387.5,811.58M294.38,811.58L317.84,826.02L341.06,811.58M294.38,898.19L317.84,912.63L341.06,898.19L341.06,869.32L317.84,854.88L294.38,869.32M387.5,898.19L364.28,912.63L364.28,941.5L387.5,955.68L410.7,941.5L410.7,912.63M387.5,869.32L364.28,854.88L341.06,869.32M364.28,912.63L341.06,898.19M317.84,854.88L317.84,826.01M364.28,826.01L364.28,854.88M317.84,912.62L317.84,941.49L341.06,955.67L364.28,941.49M271.16,941.49L294.38,955.67L317.84,941.49M294.38,955.67L294.38,984.54L317.84,998.98L341.06,984.54L341.06,955.67M317.84,998.98L317.84,1027.85M410.7,1027.85L410.7,998.98L387.5,984.54L364.28,998.98L364.28,1027.85M364.28,998.98L341.06,984.54M387.5,955.67L387.5,984.54M457.14,941.49L433.92,955.67L433.92,984.54L457.14,998.98L480.36,984.54L480.36,955.67L457.14,941.49L457.14,912.62M410.7,941.49L433.92,955.67M433.92,984.54L410.7,998.98M457.14,1027.85L457.14,998.98M271.17,998.98L294.39,984.54M178.29,768.54L155.07,782.7M271.17,768.54L247.95,782.7M341.07,782.7L317.85,768.54M480.37,782.7L457.15,768.54M15.54,523.42L15.54,552.29L38.76,566.73L61.98,552.29L61.98,523.42L38.76,508.97M61.98,552.29L85.44,566.73M-7.68,508.97L-30.9,523.42L-30.9,552.29L-7.68,566.73L15.54,552.29M15.54,609.76L-7.68,595.6L-30.9,609.76L-30.9,638.63L-7.68,653.07L15.54,638.63L15.54,609.76ZM15.54,638.63L38.76,653.07L61.98,638.63L61.98,609.76L38.76,595.6L15.54,609.76M85.44,595.6L61.98,609.76M-7.68,566.73L-7.68,595.6M38.76,595.6L38.76,566.73M-54.12,566.73L-30.9,552.29M-30.9,609.76L-54.12,595.6M-54.12,739.68L-30.9,725.24L-30.9,696.37L-54.12,681.93M38.76,653.06L38.76,681.93L61.98,696.37L85.44,681.93L85.44,653.06L61.98,638.62M-7.68,653.06L-7.68,681.93L15.54,696.37L38.76,681.93M-7.68,768.54L15.54,782.7L38.76,768.54L38.76,739.67L15.54,725.23L-7.68,739.67L-7.68,768.54L-30.9,782.7M38.76,739.67L61.98,725.23L61.98,696.36M61.98,725.23L85.44,739.67M15.54,696.36L15.54,725.23M-54.12,653.05L-30.9,638.61M-7.68,681.92L-30.9,696.36M-30.9,725.23L-7.68,739.67M15.54,782.7L15.54,811.57L38.76,826.01L61.98,811.57L61.98,782.7L38.76,768.54M61.98,811.57L85.44,826.01M15.54,811.57L-7.68,826.01L-7.68,854.88L15.54,869.32L38.76,854.88L38.76,826.01M-7.68,854.88L-30.9,869.32L-30.9,898.19L-7.68,912.63L15.54,898.19L15.54,869.32M15.54,898.19L38.76,912.63L61.98,898.19M61.98,869.32L38.76,854.88M-54.12,826.01L-30.9,811.57L-30.9,782.7L-54.12,768.54M-54.12,912.62L-30.9,898.18M-30.9,869.31L-54.12,854.87M-54.12,998.97L-30.9,984.53L-30.9,955.66L-54.12,941.48M85.44,941.48L61.98,955.66L61.98,984.53L85.44,998.97L108.66,984.53M61.98,955.66L38.76,941.48L15.54,955.66L15.54,984.53L38.76,998.97L61.98,984.53M-7.68,912.61L-7.68,941.48L15.54,955.66M15.54,984.53L-7.68,998.97L-7.68,1027.84M85.44,1027.84L85.44,998.97M38.76,1027.84L38.76,998.97M38.76,941.48L38.76,912.61M-30.9,811.56L-7.68,826M-7.68,941.48L-30.9,955.66M-30.9,984.53L-7.68,998.97M85.44,768.53L61.98,782.69M108.66,696.35L85.44,681.91M85.44,653.04L108.66,638.6M155.08,523.39L131.88,508.94M-30.89,523.39L-54.11,508.94M85.45,508.94L61.99,523.39M364.3,508.94L341.08,523.39M224.74,508.94L247.96,523.39M480.37,523.39L457.15,508.94M480.37,206.34L503.59,220.78M503.59,163.04L480.37,177.48M480.37,725.23L503.59,739.67M503.59,681.93L480.37,696.37M503.59,941.49L480.37,955.67M480.37,984.54L503.59,998.98M480.37,465.65L503.59,480.09M503.59,422.62L480.37,436.78" style="fill:none;fill-rule:nonzero;stroke:rgb(152,152,152);stroke-width:2.02px;stroke-linecap:square;"/>
            </g>
            <circle cx="512" cy="512" r="460" style="fill:none;stroke:rgb(229,229,229);stroke-width:99px;stroke-miterlimit:4;"/>
            <circle cx="512" cy="512" r="270" style="fill:rgb(229,229,229);stroke:rgb(229,229,229);stroke-width:76px;stroke-miterlimit:4;"/>
            <circle cx="512" cy="512" r="410" style="fill:none;stroke:rgb(0,146,82);stroke-width:12px;stroke-miterlimit:4;"/>
            <path d="M512,636L512,71L182,636L512,636Z" style="fill-rule:nonzero;"/>
            <path d="M512,388L512,953L842,388L512,388Z" style="fill-rule:nonzero;"/>
            <clipPath id="_clip3">
                <path id="lidarr-honeycomb-b" d="M512,636L512,71L182,636L512,636ZM512,388L512,953L842,388L512,388Z"/>
            </clipPath>
            <g clip-path="url(#_clip3)">
                <path d="M852.12,33.49L875.58,47.93L898.8,33.49L898.8,4.62L875.58,-9.82L852.12,4.62L852.12,33.49ZM805.68,4.62L782.46,-9.82L759.26,4.62L759.26,33.49L782.46,47.93L805.68,33.49L805.68,4.62L828.9,-9.82L852.12,4.62M805.68,33.49L828.9,47.93L852.12,33.49M805.68,90.98L805.68,119.85L828.9,134.29L852.12,119.85L852.12,90.98L828.9,76.8L805.68,90.98L782.46,76.8L759.26,90.98M852.12,119.85L875.58,134.29L898.8,119.85L898.8,90.98L875.58,76.8L852.12,90.98M875.58,47.93L875.58,76.8M828.9,47.93L828.9,76.8M898.8,4.62L922.02,-9.82L945.24,4.62L968.46,-9.82L991.68,4.62L1014.88,-9.82L1038.1,4.62L1038.1,33.49L1061.32,47.93L1061.32,76.8L1038.1,90.98L1038.1,119.85L1061.32,134.29L1061.32,163.16L1038.1,177.6L1038.1,206.47L1061.32,220.91L1061.32,249.78L1038.1,263.94L1038.1,292.81L1061.32,307.25L1061.32,336.12L1038.1,350.56L1038.1,379.43L1061.32,393.87L1061.32,422.74L1038.1,436.9L1038.1,465.77L1061.32,480.21L1061.32,509.08L1038.1,523.53L1038.1,552.4L1061.32,566.84L1061.32,595.71L1038.1,609.87L1038.1,638.74L1061.32,653.18L1061.32,682.05L1038.1,696.49L1038.1,725.36L1061.32,739.8L1061.32,768.67L1038.1,782.83L1038.1,811.7L1061.32,826.14L1061.32,855.01L1038.1,869.45L1038.1,898.32L1061.32,912.76L1061.32,941.63L1038.1,955.81L1038.1,984.68L1061.32,999.12L1061.32,1027.99L1038.1,1042.43L1014.88,1027.99L991.68,1042.43L968.46,1027.99L945.24,1042.43L922.02,1027.99L898.8,1042.43L875.58,1027.99L852.12,1042.43L828.9,1027.99L805.68,1042.43L782.46,1027.99L759.26,1042.43L736.04,1027.99L712.82,1042.43L689.6,1027.99L666.38,1042.43L643.16,1027.99L619.7,1042.43L596.48,1027.99L573.26,1042.43L550.04,1027.99L526.84,1042.43L503.62,1027.99L480.4,1042.43L457.18,1027.99L433.96,1042.43L410.74,1027.99L387.54,1042.43L364.32,1027.99L341.1,1042.43L317.88,1027.99L294.42,1042.43L271.2,1027.99L247.98,1042.43L224.76,1027.99L201.54,1042.43L178.32,1027.99L155.1,1042.43L131.9,1027.99L108.68,1042.43L85.46,1027.99L62,1042.43L38.78,1027.99L15.56,1042.43L-7.66,1027.99L-30.88,1042.43L-54.1,1027.99L-54.1,999.12L-77.32,984.68L-77.32,955.81L-54.1,941.63L-54.1,912.76L-77.32,898.32L-77.32,869.45L-54.1,855.01L-54.1,826.14L-77.32,811.7L-77.32,782.83L-54.1,768.67L-54.1,739.8L-77.32,725.36L-77.32,696.49L-54.1,682.05L-54.1,653.18L-77.32,638.74L-77.32,609.87L-54.1,595.71L-54.1,566.84L-77.32,552.4L-77.32,523.53L-54.1,509.08L-54.1,480.21L-77.32,465.77L-77.32,436.9L-54.1,422.74L-54.1,393.87L-77.32,379.43L-77.32,350.56L-54.1,336.12L-54.1,307.25L-77.32,292.81L-77.32,263.94L-54.1,249.78L-54.1,220.91L-77.32,206.47L-77.32,177.6L-54.1,163.16L-54.1,134.29L-77.32,119.85L-77.32,90.98L-54.1,76.8L-54.1,47.93L-77.32,33.49L-77.32,4.62L-54.1,-9.82L-30.88,4.62L-7.66,-9.82L15.56,4.62L38.78,-9.82L62,4.62L85.46,-9.82L108.68,4.62L131.9,-9.82L155.1,4.62L178.32,-9.82L201.54,4.62L224.76,-9.82L247.98,4.62L271.2,-9.82L294.42,4.62L317.88,-9.82L341.1,4.62L364.32,-9.82L387.54,4.62L410.74,-9.82L433.96,4.62L457.18,-9.82L480.4,4.62L503.62,-9.82L526.84,4.62L550.04,-9.82L573.26,4.62L596.48,-9.82L619.7,4.62L643.16,-9.82L666.38,4.62L689.6,-9.82L712.82,4.62L736.04,-9.82L759.26,4.62M712.82,4.62L712.82,33.49L736.04,47.93L759.26,33.49M712.82,90.98L712.82,119.85L736.04,134.29L759.26,119.85L759.26,90.98L736.04,76.8L712.82,90.98L689.6,76.8L666.38,90.98M782.46,47.93L782.46,76.8M736.04,47.93L736.04,76.8M759.26,177.59L759.26,206.46L782.46,220.9L805.68,206.46L805.68,177.59L782.46,163.15L759.26,177.59L736.04,163.15L712.82,177.59L712.82,206.46L736.04,220.9L759.26,206.46M805.68,119.85L782.46,134.29L782.46,163.16M759.26,119.85L782.46,134.29M736.04,134.29L736.04,163.16M736.04,220.9L736.04,249.77L759.26,263.93L782.46,249.77L782.46,220.9M828.9,134.29L828.9,163.16L852.12,177.6L875.58,163.16L875.58,134.29M828.9,163.16L805.68,177.6M782.46,249.78L805.68,263.94L828.9,249.78L828.9,220.91L805.68,206.47M852.12,177.6L852.12,206.47L875.58,220.91L898.8,206.47L898.8,177.6L875.58,163.16M875.58,220.9L875.58,249.77L898.8,263.93L922.02,249.77L922.02,220.9L898.8,206.46M828.9,220.9L852.12,206.46M666.38,4.62L666.38,33.49L689.6,47.93L712.82,33.49M573.26,4.62L573.26,33.49L596.48,47.93L619.7,33.49L619.7,4.62M619.7,33.49L643.16,47.93L666.38,33.49M619.7,90.98L619.7,119.85L643.16,134.29L666.38,119.85L666.38,90.98L643.16,76.8L619.7,90.98L596.48,76.8L573.26,90.98L573.26,119.85L596.48,134.29L619.7,119.85M596.48,47.93L596.48,76.8M689.6,47.93L689.6,76.8M643.16,47.93L643.16,76.8M526.84,4.62L526.84,33.49L550.04,47.93L573.26,33.49M480.4,4.62L480.4,33.49L503.62,47.93L526.84,33.49M503.62,76.8L480.4,90.98L480.4,119.85L503.62,134.29L526.84,119.85L526.84,90.98L503.62,76.8ZM573.26,90.98L550.04,76.8L526.84,90.98M503.62,47.93L503.62,76.8M550.04,47.93L550.04,76.8M573.26,119.85L550.04,134.29L550.04,163.16L573.26,177.6L596.48,163.16L596.48,134.29M503.62,134.29L503.62,163.16L526.84,177.6L550.04,163.16M503.62,249.77L526.84,263.93L550.04,249.77L550.04,220.9L526.84,206.46L503.62,220.9L503.62,249.77L480.4,263.93L480.4,292.8L503.62,307.24L526.84,292.8L526.84,263.93M550.04,220.9L573.26,206.46L573.26,177.59M526.84,119.85L550.04,134.29M526.84,206.47L526.84,177.6M643.16,134.29L643.16,163.16L666.38,177.6L689.6,163.16L689.6,134.29L666.38,119.85M573.26,206.46L596.48,220.9L619.7,206.46L619.7,177.59L596.48,163.15M643.16,163.15L619.7,177.59M643.16,249.77L666.38,263.93L689.6,249.77L689.6,220.9L666.38,206.46L643.16,220.9L643.16,249.77L619.7,263.93L619.7,292.8L596.48,307.24L596.48,336.11L619.7,350.55L643.16,336.11L643.16,307.24L619.7,292.8M550.04,249.77L573.26,263.93L596.48,249.77L596.48,220.9M619.7,206.46L643.16,220.9M666.38,206.46L666.38,177.59M666.38,263.93L666.38,292.8L689.6,307.24L712.82,292.8L712.82,263.93L689.6,249.77M619.7,350.54L619.7,379.41L643.16,393.85L666.38,379.41L666.38,350.54L643.16,336.1M666.38,379.41L689.6,393.85L712.82,379.41L712.82,350.54L689.6,336.1L666.38,350.54M643.16,307.23L666.38,292.79M689.6,307.23L689.6,336.1M596.48,307.23L573.26,292.79L550.04,307.23L550.04,336.1L573.26,350.54L596.48,336.1M573.26,292.79L573.26,263.92M503.62,336.1L480.4,350.54L480.4,379.41L503.62,393.85L526.84,379.41L526.84,350.54L503.62,336.1ZM526.84,379.41L550.04,393.85L573.26,379.41L573.26,350.54M503.62,307.23L503.62,336.1M550.04,336.1L526.84,350.54M526.84,292.8L550.04,307.24M550.04,422.72L526.84,436.88L526.84,465.75L550.04,480.19L573.26,465.75L573.26,436.88L550.04,422.72ZM550.04,393.85L550.04,422.72M503.62,393.85L503.62,422.72L526.84,436.88M526.84,465.75L503.62,480.19L503.62,509.06L526.84,523.51L550.04,509.06L550.04,480.19M666.38,436.88L666.38,465.75L689.6,480.19L712.82,465.75L712.82,436.88L689.6,422.72L666.38,436.88ZM689.6,393.85L689.6,422.72M619.7,379.41L596.48,393.85L596.48,422.72L619.7,436.88L643.16,422.72L643.16,393.85M573.26,465.75L596.48,480.19L619.7,465.75L619.7,436.88M666.38,465.75L643.16,480.19L643.16,509.06L666.38,523.51L689.6,509.06L689.6,480.19M550.04,509.06L573.26,523.51L596.48,509.06L596.48,480.19M619.7,465.75L643.16,480.19M643.16,422.72L666.38,436.88M573.26,379.41L596.48,393.85M596.48,422.72L573.26,436.88M875.57,249.77L852.11,263.93L852.11,292.8L875.57,307.24L898.79,292.8L898.79,263.93M805.67,263.93L805.67,292.8L828.89,307.24L852.11,292.8M805.67,379.41L828.89,393.85L852.11,379.41L852.11,350.54L828.89,336.1L805.67,350.54L805.67,379.41L782.45,393.85L782.45,422.72M852.11,379.41L875.57,393.85L898.79,379.41L898.79,350.54L875.57,336.1L852.11,350.54M875.57,307.23L875.57,336.1M828.89,307.23L828.89,336.1M759.25,263.92L759.25,292.79L782.45,307.23L805.67,292.79M712.81,292.79L736.03,307.23L759.25,292.79M712.81,379.4L736.03,393.84L759.25,379.4L759.25,350.53L736.03,336.09L712.81,350.53M805.67,350.53L782.45,336.09L759.25,350.53M782.45,307.22L782.45,336.09M736.03,307.22L736.03,336.09M759.25,436.86L759.25,465.73L782.45,480.17L805.67,465.73L805.67,436.86L782.45,422.7L759.25,436.86L736.03,422.7L712.81,436.86M736.03,393.83L736.03,422.7M759.25,465.73L736.03,480.17L736.03,509.04L759.25,523.49L782.45,509.04L782.45,480.17M712.81,465.73L736.03,480.17M875.56,393.83L875.56,422.7L898.78,436.86L922,422.7L922,393.83L898.78,379.39M875.56,422.7L852.1,436.86L852.1,465.73L875.56,480.17L898.78,465.73L898.78,436.86M828.88,393.83L828.88,422.7L852.1,436.86M828.88,422.7L805.66,436.86M852.1,465.73L828.88,480.17L828.88,509.04L852.1,523.49L875.56,509.04L875.56,480.17M805.66,465.73L828.88,480.17M759.24,379.4L782.44,393.84M712.8,177.58L689.58,163.14M689.58,220.88L712.8,206.44M689.58,134.26L712.8,119.82M828.88,249.74L852.1,263.9M736.02,249.74L712.8,263.9M619.68,263.9L596.46,249.74M1014.85,47.9L991.65,33.46L968.43,47.9L968.43,76.77L991.65,90.95L1014.85,76.77L1014.85,47.9L1038.07,33.46M1038.07,90.95L1014.85,76.77M991.65,4.59L991.65,33.46M898.77,33.46L921.99,47.9L945.21,33.46L945.21,4.59M898.77,119.82L921.99,134.26L945.21,119.82L945.21,90.95L921.99,76.77L898.77,90.95M945.21,90.95L968.43,76.77M921.99,47.9L921.99,76.77M945.21,33.46L968.43,47.9M968.43,134.26L968.43,163.13L991.65,177.57L1014.85,163.13L1014.85,134.26L991.65,119.82L968.43,134.26L945.21,119.82M921.99,220.87L945.21,206.43L945.21,177.56L921.99,163.12L898.77,177.56M921.99,134.25L921.99,163.12M968.43,220.86L968.43,249.73L991.65,263.89L1014.85,249.73L1014.85,220.86L991.65,206.42L968.43,220.86L945.21,206.42M991.65,177.55L991.65,206.42M945.21,177.55L968.43,163.11M1038.07,177.55L1014.85,163.11M1014.85,134.24L1038.07,119.8M1014.85,220.85L1038.07,206.41M991.65,90.93L991.65,119.8M991.65,263.88L991.65,292.75L1014.85,307.19L1038.07,292.75M991.65,292.75L968.43,307.19L968.43,336.06L991.65,350.5L1014.85,336.06L1014.85,307.19M1038.07,350.5L1014.85,336.06M898.77,292.75L921.99,307.19L945.21,292.75L945.21,263.88L921.99,249.72M921.99,393.8L945.21,379.36L945.21,350.49L921.99,336.05L898.77,350.49M991.65,350.49L991.65,379.36L1014.85,393.8L1038.07,379.36M945.21,350.49L968.43,336.05M921.99,307.18L921.99,336.05M945.21,292.74L968.43,307.18M921.99,422.66L945.21,436.82L968.43,422.66L968.43,393.79L945.21,379.35M945.21,436.82L945.21,465.69L968.43,480.13L991.65,465.69L991.65,436.82L968.43,422.66M898.77,465.69L921.99,480.13L945.21,465.69M921.99,480.13L921.99,509L945.21,523.45L968.43,509L968.43,480.13M991.65,436.82L1014.85,422.66L1014.85,393.79M1038.07,436.82L1014.85,422.66M991.65,465.69L1014.85,480.13L1038.07,465.69M968.43,509L991.65,523.45L1014.85,509L1014.85,480.13M968.43,393.79L991.65,379.35M1038.07,263.87L1014.85,249.71M945.21,263.87L968.43,249.71M1014.85,566.75L991.65,552.31L968.43,566.75L968.43,595.62L991.65,609.78L1014.85,595.62L1014.85,566.75L1038.07,552.31M1038.07,609.78L1014.85,595.62M991.65,523.44L991.65,552.31M945.21,523.44L945.21,552.31L968.43,566.75M898.77,552.31L875.55,566.75L875.55,595.62L898.77,609.78L921.99,595.62L921.99,566.75L898.77,552.31L898.77,523.44L875.55,508.99M945.21,552.31L921.99,566.75M968.43,595.62L945.21,609.78L945.21,638.65L968.43,653.09L991.65,638.65L991.65,609.78M875.55,595.62L852.09,609.78L852.09,638.65L875.55,653.09L898.77,638.65L898.77,609.78M921.99,595.62L945.21,609.78M968.43,681.96L945.21,696.4L945.21,725.27L968.43,739.71L991.65,725.27L991.65,696.4L968.43,681.96ZM968.43,653.09L968.43,681.96M945.21,638.65L921.99,653.09L921.99,681.96L945.21,696.4M921.99,681.96L898.77,696.4L898.77,725.27L921.99,739.71L945.21,725.27M921.99,739.71L921.99,768.58L945.21,782.74L968.43,768.58L968.43,739.71M991.65,696.4L1014.85,681.96L1014.85,653.09L991.65,638.65M1038.07,696.39L1014.85,681.95M968.43,768.56L991.65,782.72L1014.85,768.56L1014.85,739.69L991.65,725.25M1014.85,739.69L1038.07,725.25M898.77,638.64L921.99,653.08M1014.85,653.08L1038.07,638.64M991.65,782.72L991.65,811.59L1014.85,826.03L1038.07,811.59M1038.07,869.33L1014.85,854.89L991.65,869.33L991.65,898.2L1014.85,912.64L1038.07,898.2M1014.85,854.89L1014.85,826.02M991.65,811.58L968.43,826.02L968.43,854.89L991.65,869.33M921.99,768.56L898.77,782.72L898.77,811.59L921.99,826.03L945.21,811.59L945.21,782.72M921.99,912.64L945.21,898.2L945.21,869.33L921.99,854.89L898.77,869.33L898.77,898.2L921.99,912.64L921.99,941.51L945.21,955.69L968.43,941.51M945.21,898.2L968.43,912.64L991.65,898.2M968.43,854.89L945.21,869.33M945.21,811.59L968.43,826.03M921.99,826.03L921.99,854.9M968.43,912.64L968.43,941.51L991.65,955.69L1014.85,941.51L1014.85,912.64M898.77,898.2L875.55,912.64L875.55,941.51L898.77,955.69L921.99,941.51M898.77,955.69L898.77,984.56L921.99,999L945.21,984.56L945.21,955.69M921.99,999L921.99,1027.87M1014.85,1027.87L1014.85,999L991.65,984.56L968.43,999L968.43,1027.87M991.65,955.69L991.65,984.56M968.43,999L945.21,984.56M1038.07,955.69L1014.85,941.51M1014.85,999L1038.07,984.56M1038.07,782.72L1014.85,768.56M852.09,523.44L852.09,552.31L875.55,566.75M828.87,508.99L805.65,523.44L805.65,552.31L828.87,566.75L852.09,552.31M852.09,609.78L828.87,595.62L805.65,609.78L805.65,638.65L828.87,653.09L852.09,638.65M828.87,595.62L828.87,566.75M759.23,523.44L759.23,552.31L782.43,566.75L805.65,552.31M736.01,508.99L712.79,523.44L712.79,552.31L736.01,566.75L759.23,552.31M712.79,638.65L736.01,653.09L759.23,638.65L759.23,609.78L736.01,595.62L712.79,609.78L712.79,638.65L689.57,653.09L689.57,681.96M759.23,609.78L782.43,595.62L782.43,566.75M736.01,566.75L736.01,595.62M759.23,696.39L759.23,725.26L782.43,739.7L805.65,725.26L805.65,696.39L782.43,681.95L759.23,696.39ZM805.65,638.65L782.43,653.09L782.43,681.96M736.01,653.09L736.01,681.96L759.23,696.4M736.01,681.96L712.79,696.4L712.79,725.27L736.01,739.71L759.23,725.27M736.01,739.71L736.01,768.58L759.23,782.74L782.43,768.58L782.43,739.71M875.55,653.1L875.55,681.97L898.77,696.41M875.55,681.97L852.09,696.41L852.09,725.28L875.55,739.72L898.77,725.28M805.65,696.41L828.87,681.97L828.87,653.1M852.09,725.28L828.87,739.72L828.87,768.59L852.09,782.75L875.55,768.59L875.55,739.72M805.65,725.28L828.87,739.72M852.09,696.41L828.87,681.97M759.23,638.66L782.43,653.1M782.43,595.63L805.65,609.79M643.13,509L619.67,523.45L619.67,552.32L643.13,566.76L666.35,552.32L666.35,523.45M643.13,566.76L643.13,595.63L666.35,609.79L689.57,595.63L689.57,566.76L666.35,552.32M573.23,523.45L573.23,552.32L596.45,566.76L619.67,552.32M643.13,595.63L619.67,609.79L619.67,638.66L643.13,653.1L666.35,638.66L666.35,609.79M619.67,609.79L596.45,595.63L573.23,609.79L573.23,638.66L596.45,653.1L619.67,638.66M596.45,595.63L596.45,566.76M573.23,552.32L550.01,566.76L550.01,595.63L573.23,609.79M503.59,509L480.37,523.45L480.37,552.32L503.59,566.76L526.81,552.32L526.81,523.45M526.81,609.79L503.59,595.63L480.37,609.79L480.37,638.66L503.59,653.1L526.81,638.66L526.81,609.79L550.01,595.63M550.01,566.76L526.81,552.32M503.59,566.76L503.59,595.63M550.01,681.97L526.81,696.41L526.81,725.28L550.01,739.72L573.23,725.28L573.23,696.41L550.01,681.97ZM573.23,638.66L550.01,653.1L550.01,681.97M503.59,653.1L503.59,681.97L526.81,696.41M526.81,725.28L503.59,739.72L503.59,768.59L526.81,782.75L550.01,768.59L550.01,739.72M712.78,696.41L689.56,681.97L666.34,696.41L666.34,725.28L689.56,739.72L712.78,725.28M596.44,653.1L596.44,681.97L619.66,696.41L643.12,681.97L643.12,653.1M596.44,768.58L619.66,782.74L643.12,768.58L643.12,739.71L619.66,725.27L596.44,739.71L596.44,768.58L573.22,782.74L573.22,811.61L596.44,826.05L619.66,811.61M643.12,768.58L666.34,782.74L689.56,768.58L689.56,739.71M643.12,739.71L666.34,725.27M619.66,696.4L619.66,725.27M666.34,696.4L643.12,681.96M666.34,638.65L689.56,653.09M596.44,681.96L573.22,696.4M573.22,725.27L596.44,739.71M526.8,638.66L550,653.1M666.34,811.62L643.12,826.06L643.12,854.93L666.34,869.37L689.56,854.93L689.56,826.06L666.34,811.62L666.34,782.75M619.66,782.75L619.66,811.62L643.12,826.06M643.12,854.93L619.66,869.37L619.66,898.24L643.12,912.68L666.34,898.24L666.34,869.37M619.66,869.37L596.44,854.93L573.22,869.37L573.22,898.24L596.44,912.68L619.66,898.24M643.12,912.68L643.12,941.55L666.34,955.73L689.56,941.55L689.56,912.68L666.34,898.24M596.44,854.93L596.44,826.06M526.8,782.75L526.8,811.62L550,826.06L573.22,811.62M503.58,768.59L480.36,782.75L480.36,811.62L503.58,826.06L526.8,811.62M503.58,854.93L480.36,869.37L480.36,898.24L503.58,912.68L526.8,898.24L526.8,869.37L503.58,854.93ZM573.22,898.24L550,912.68L550,941.55L573.22,955.73L596.44,941.55L596.44,912.68M550,826.07L550,854.94L573.22,869.38M503.58,826.07L503.58,854.94M526.8,869.38L550,854.94M550,912.68L526.8,898.24M503.58,912.68L503.58,941.55L526.8,955.73L550,941.55M550,1027.91L550,999.04L526.8,984.6L503.58,999.04L503.58,1027.91M596.44,1027.91L596.44,999.04L573.22,984.6L550,999.04M526.8,984.6L526.8,955.73M573.22,984.6L573.22,955.73M596.44,999.04L619.66,984.6L619.66,955.73L596.44,941.55M643.12,941.55L619.66,955.73M643.12,1027.91L643.12,999.04L619.66,984.6M736,1027.91L736,999.04L712.78,984.6L689.56,999.04L689.56,1027.91M666.34,955.73L666.34,984.6L689.56,999.04M643.12,999.04L666.34,984.6M852.08,782.76L852.08,811.63L875.54,826.07L898.76,811.63M828.86,768.6L805.64,782.76L805.64,811.63L828.86,826.07L852.08,811.63M828.86,912.68L852.08,898.24L852.08,869.37L828.86,854.93L805.64,869.37L805.64,898.24L828.86,912.68L828.86,941.55L852.08,955.73L875.54,941.55M898.76,869.37L875.54,854.93L852.08,869.37M852.08,898.24L875.54,912.68M875.54,854.94L875.54,826.07M828.86,826.07L828.86,854.94M759.22,782.76L759.22,811.63L782.42,826.07L805.64,811.63M736,768.6L712.78,782.76L712.78,811.63L736,826.07L759.22,811.63M712.78,869.37L712.78,898.24L736,912.68L759.22,898.24L759.22,869.37L736,854.93L712.78,869.37L689.56,854.93M805.64,869.37L782.42,854.93L759.22,869.37M759.22,898.24L782.42,912.68L805.64,898.24M782.42,826.06L782.42,854.93M736,826.06L736,854.93M736,912.67L736,941.54L759.22,955.72L782.42,941.54L782.42,912.67M736,941.54L712.78,955.72L712.78,984.59M782.42,1027.9L782.42,999.03L759.22,984.59L736,999.03M759.22,984.59L759.22,955.72M782.42,941.54L805.64,955.72L828.86,941.54M805.64,955.72L805.64,984.59L828.86,999.03L852.08,984.59L852.08,955.72M828.86,999.03L828.86,1027.9M875.54,1027.9L875.54,999.03L852.08,984.59M782.42,999.03L805.64,984.59M712.78,609.8L689.56,595.64M689.56,566.77L712.78,552.33M689.56,912.67L712.78,898.23M689.56,826.05L712.78,811.61M712.78,782.74L689.56,768.58M805.64,782.74L782.42,768.58M573.22,782.74L550,768.58M712.77,955.71L689.55,941.53M875.52,999.02L898.74,984.58M898.74,782.74L875.52,768.58M921.96,509L898.74,523.45M712.77,523.45L689.55,509M805.63,523.45L782.41,509M1038.05,523.45L1014.83,509M619.66,523.45L596.44,509M15.53,4.56L15.53,33.43L38.75,47.87L61.97,33.43L61.97,4.56M61.97,33.43L85.43,47.87L108.65,33.43L108.65,4.56M-30.91,4.56L-30.91,33.43L-7.69,47.87L15.53,33.43M-7.69,76.74L-30.91,90.92L-30.91,119.79L-7.69,134.23L15.53,119.79L15.53,90.92L-7.69,76.74ZM15.53,119.79L38.75,134.23L61.97,119.79L61.97,90.92L38.75,76.74L15.53,90.92M61.97,119.79L85.43,134.23L108.65,119.79L108.65,90.92L85.43,76.74L61.97,90.92M-7.69,47.87L-7.69,76.74M38.75,47.87L38.75,76.74M85.43,47.87L85.43,76.74M-54.13,47.87L-30.91,33.43M-30.91,90.92L-54.13,76.74M-54.13,220.84L-30.91,206.4L-30.91,177.53L-54.13,163.09M-54.13,134.22L-30.91,119.78M38.75,163.09L15.53,177.53L15.53,206.4L38.75,220.84L61.97,206.4L61.97,177.53L38.75,163.09L38.75,134.22M61.97,206.4L85.43,220.84L108.65,206.4L108.65,177.53L85.43,163.09L61.97,177.53M85.43,134.22L85.43,163.09M-7.69,134.22L-7.69,163.09L15.53,177.53M15.53,206.4L-7.69,220.84L-7.69,249.71L15.53,263.87L38.75,249.71L38.75,220.84M85.43,220.84L85.43,249.71L108.65,263.87L131.87,249.71L131.87,220.84L108.65,206.4M-7.69,163.09L-30.91,177.53M-30.91,206.4L-7.69,220.84M61.97,292.74L38.75,307.18L38.75,336.05L61.97,350.49L85.43,336.05L85.43,307.18L61.97,292.74ZM85.43,249.71L61.97,263.87L61.97,292.74M-7.69,249.71L-30.91,263.87L-30.91,292.74L-7.69,307.18L15.53,292.74L15.53,263.87M15.53,350.48L-7.69,336.04L-30.91,350.48L-30.91,379.35L-7.69,393.79L15.53,379.35L15.53,350.48L38.75,336.04M61.97,350.48L61.97,379.35L85.43,393.79L108.65,379.35L108.65,350.48L85.43,336.04M-7.69,307.17L-7.69,336.04M38.75,307.17L15.53,292.73M-54.13,307.17L-30.91,292.73M-30.91,350.47L-54.13,336.03M-54.13,480.11L-30.91,465.67L-30.91,436.8L-54.13,422.64M61.97,436.8L61.97,465.67L85.43,480.11L108.65,465.67L108.65,436.8L85.43,422.64L61.97,436.8ZM85.43,393.77L85.43,422.64M61.97,379.33L38.75,393.77L38.75,422.64L61.97,436.8M-7.69,393.77L-7.69,422.64L15.53,436.8L38.75,422.64M-7.69,480.11L-7.69,508.98L15.53,523.43L38.75,508.98L38.75,480.11L15.53,465.67L-7.69,480.11ZM85.43,480.11L85.43,508.98L108.65,523.43L131.87,508.98L131.87,480.11L108.65,465.67M38.75,480.11L61.97,465.67M15.53,436.8L15.53,465.67M15.53,379.33L38.75,393.77M-7.69,422.64L-30.91,436.8M-30.91,465.67L-7.69,480.11M-54.13,393.77L-30.91,379.33M61.97,263.85L38.75,249.69M-30.91,263.85L-54.13,249.69M433.92,4.54L433.92,33.41L457.14,47.85L480.36,33.41M387.5,4.54L387.5,33.41L410.7,47.85L433.92,33.41M410.7,76.72L387.5,90.9L387.5,119.77L410.7,134.21L433.92,119.77L433.92,90.9L410.7,76.72L410.7,47.85M480.36,90.9L457.14,76.72L433.92,90.9M457.14,76.72L457.14,47.85M341.06,4.54L341.06,33.41L364.28,47.85L387.5,33.41M294.38,4.54L294.38,33.41L317.84,47.85L341.06,33.41M294.38,90.9L294.38,119.77L317.84,134.21L341.06,119.77L341.06,90.9L317.84,76.72L294.38,90.9L271.16,76.72L247.94,90.9M387.5,90.9L364.28,76.72L341.06,90.9M317.84,47.85L317.84,76.72M364.28,47.85L364.28,76.72M387.5,119.77L364.28,134.21L364.28,163.08L387.5,177.52L410.7,163.08L410.7,134.21M341.06,119.77L364.28,134.21M364.28,163.08L341.06,177.52L341.06,206.39L364.28,220.83L387.5,206.39L387.5,177.52M294.38,119.78L271.16,134.22L271.16,163.09L294.38,177.53L317.84,163.09L317.84,134.22M341.06,206.4L317.84,220.84L317.84,249.71L341.06,263.87L364.28,249.71L364.28,220.84M294.38,177.53L294.38,206.4L317.84,220.84M341.06,177.53L317.84,163.09M433.92,119.78L457.14,134.22L480.36,119.78M457.14,163.09L433.92,177.53L433.92,206.4L457.14,220.84L480.36,206.4L480.36,177.53L457.14,163.09L457.14,134.22M410.7,163.09L433.92,177.53M433.92,206.4L410.7,220.84L410.7,249.71L433.92,263.87L457.14,249.71L457.14,220.84M410.7,220.84L387.5,206.4M247.94,4.56L247.94,33.43L271.16,47.87L294.38,33.43M201.5,4.56L201.5,33.43L224.72,47.87L247.94,33.43M201.5,90.92L201.5,119.79L224.72,134.23L247.94,119.79L247.94,90.92L224.72,76.74L201.5,90.92L178.28,76.74L155.06,90.92M271.16,47.87L271.16,76.74M224.72,47.87L224.72,76.74M155.06,4.56L155.06,33.43L178.28,47.87L201.5,33.43M108.64,33.43L131.86,47.87L155.06,33.43M108.64,119.79L131.86,134.23L155.06,119.79L155.06,90.92L131.86,76.74L108.64,90.92M178.28,47.87L178.28,76.74M131.86,47.87L131.86,76.74M155.06,119.79L178.28,134.23L201.5,119.79M178.28,134.23L178.28,163.1L201.5,177.54L224.72,163.1L224.72,134.23M178.28,163.1L155.06,177.54L155.06,206.41L178.28,220.85L201.5,206.41L201.5,177.54M108.64,177.54L131.86,163.1L131.86,134.23M178.28,220.84L178.28,249.71L201.5,263.87L224.72,249.71L224.72,220.84L201.5,206.4M155.06,177.53L131.86,163.09M131.86,220.83L155.06,206.39M247.94,119.78L271.16,134.22M271.16,163.09L247.94,177.53L247.94,206.4L271.16,220.84L294.38,206.4M224.72,249.71L247.94,263.87L271.16,249.71L271.16,220.84M224.72,163.1L247.94,177.54M224.72,220.85L247.94,206.41M247.94,263.88L247.94,292.75L271.16,307.19L294.38,292.75L294.38,263.88L271.16,249.72M201.5,263.88L201.5,292.75L224.72,307.19L247.94,292.75M201.5,379.36L224.72,393.8L247.94,379.36L247.94,350.49L224.72,336.05L201.5,350.49L201.5,379.36L178.28,393.8L178.28,422.67M247.94,379.36L271.16,393.8L294.38,379.36L294.38,350.49L271.16,336.05L247.94,350.49M271.16,307.18L271.16,336.05M224.72,307.18L224.72,336.05M178.28,249.71L155.06,263.87L155.06,292.74L178.28,307.18L201.5,292.74M108.64,263.87L108.64,292.74L131.86,307.18L155.06,292.74M108.64,379.35L131.86,393.79L155.06,379.35L155.06,350.48L131.86,336.04L108.64,350.48M201.5,350.48L178.28,336.04L155.06,350.48M131.86,307.17L131.86,336.04M178.28,307.17L178.28,336.04M155.06,436.81L155.06,465.68L178.28,480.12L201.5,465.68L201.5,436.81L178.28,422.65L155.06,436.81L131.86,422.65L108.64,436.81M131.86,393.78L131.86,422.65M178.28,480.12L178.28,508.99L201.5,523.44L224.72,508.99L224.72,480.12L201.5,465.68M131.86,480.12L155.06,465.68M271.16,393.78L271.16,422.65L294.38,436.81L317.84,422.65L317.84,393.78L294.38,379.34M271.16,422.65L247.94,436.81L247.94,465.68L271.16,480.12L294.38,465.68L294.38,436.81M247.94,436.81L224.72,422.65L201.5,436.81M224.72,393.78L224.72,422.65M271.16,480.12L271.16,508.99L294.38,523.44L317.84,508.99L317.84,480.12L294.38,465.68M224.72,480.12L247.94,465.68M155.06,379.34L178.28,393.78M433.92,263.86L433.92,292.73L457.14,307.17L480.36,292.73M433.92,292.73L410.7,307.17L410.7,336.04L433.92,350.48L457.14,336.04L457.14,307.17M410.7,336.04L387.5,350.48L387.5,379.35L410.7,393.79L433.92,379.35L433.92,350.48M480.36,350.48L457.14,336.04M341.06,263.86L341.06,292.73L364.28,307.17L387.5,292.73L387.5,263.86L364.28,249.7M294.38,292.73L317.84,307.17L341.06,292.73M317.84,393.78L341.06,379.34L341.06,350.47L317.84,336.03L294.38,350.47M387.5,350.47L364.28,336.03L341.06,350.47M317.84,307.16L317.84,336.03M364.28,307.16L364.28,336.03M387.5,379.34L364.28,393.78L364.28,422.65L387.5,436.81L410.7,422.65L410.7,393.78M364.28,422.65L341.06,436.81L341.06,465.68L364.28,480.12L387.5,465.68L387.5,436.81M364.28,480.12L364.28,508.99L387.5,523.44L410.7,508.99L410.7,480.12L387.5,465.68M341.06,436.81L317.84,422.65M317.84,480.12L341.06,465.68M457.14,422.65L433.92,436.81L433.92,465.68L457.14,480.12L480.36,465.68L480.36,436.81L457.14,422.65L457.14,393.78L433.92,379.34M433.92,436.81L410.7,422.65M410.7,480.12L433.92,465.68M410.7,508.99L433.92,523.44L457.14,508.99L457.14,480.12M457.14,393.78L480.36,379.34M341.06,379.34L364.28,393.78M410.7,307.17L387.5,292.73M155.06,263.86L131.86,249.7M480.36,263.86L457.14,249.7M317.84,249.7L294.38,263.86M410.7,249.7L387.5,263.86M85.43,307.17L108.65,292.73M433.92,523.43L433.92,552.3L457.14,566.74L480.36,552.3M433.92,552.3L410.7,566.74L410.7,595.61L433.92,609.77L457.14,595.61L457.14,566.74M410.7,595.61L387.5,609.77L387.5,638.64L410.7,653.08L433.92,638.64L433.92,609.77M480.36,609.77L457.14,595.61M387.5,523.43L387.5,552.3L410.7,566.74M387.5,552.3L364.28,566.74L364.28,595.61L387.5,609.77M364.28,566.74L341.06,552.3L317.84,566.74L317.84,595.61L341.06,609.77L364.28,595.61M341.06,552.3L341.06,523.43L317.84,508.98M294.38,523.43L294.38,552.3L317.84,566.74M317.84,595.61L294.38,609.77L294.38,638.64L317.84,653.08L341.06,638.64L341.06,609.77M341.06,696.38L341.06,725.25L364.28,739.69L387.5,725.25L387.5,696.38L364.28,681.94L341.06,696.38L317.84,681.94L294.38,696.38L294.38,725.25L317.84,739.69L341.06,725.25M387.5,638.64L364.28,653.08L364.28,681.95M317.84,653.08L317.84,681.95M294.38,725.26L271.16,739.7L271.16,768.57L294.38,782.73L317.84,768.57L317.84,739.7M364.28,739.7L364.28,768.57L387.5,782.73L410.7,768.57L410.7,739.7L387.5,725.26M457.14,681.95L433.92,696.39L433.92,725.26L457.14,739.7L480.36,725.26L480.36,696.39L457.14,681.95L457.14,653.08L433.92,638.64M410.7,653.08L410.7,681.95L433.92,696.39M410.7,739.7L433.92,725.26M410.7,768.57L433.92,782.73L457.14,768.57L457.14,739.7M341.06,638.65L364.28,653.09M410.7,681.96L387.5,696.4M457.14,653.09L480.36,638.65M271.16,508.99L247.94,523.44L247.94,552.31L271.16,566.75L294.38,552.31M201.5,523.44L201.5,552.31L224.72,566.75L247.94,552.31M201.5,552.31L178.28,566.75L178.28,595.62L201.5,609.78L224.72,595.62L224.72,566.75M178.28,595.62L155.06,609.78L155.06,638.65L178.28,653.09L201.5,638.65L201.5,609.78M294.38,609.78L271.16,595.62L247.94,609.78L247.94,638.65L271.16,653.09L294.38,638.65M271.16,566.75L271.16,595.62M224.72,595.62L247.94,609.78M178.28,508.99L155.06,523.44L155.06,552.31L178.28,566.75M108.64,552.31L85.42,566.75L85.42,595.62L108.64,609.78L131.86,595.62L131.86,566.75L108.64,552.31L108.64,523.44M108.64,609.78L108.64,638.65L131.86,653.09L155.06,638.65M155.06,609.78L131.86,595.62M131.86,566.75L155.06,552.31M155.06,696.39L155.06,725.26L178.28,739.7L201.5,725.26L201.5,696.39L178.28,681.95L155.06,696.39ZM178.28,653.08L178.28,681.95M131.86,653.08L131.86,681.95L155.06,696.39M131.86,681.95L108.64,696.39L108.64,725.26L131.86,739.7L155.06,725.26M108.64,725.26L85.42,739.7L85.42,768.57L108.64,782.73L131.86,768.57L131.86,739.7M178.28,739.7L178.28,768.57L201.5,782.73L224.72,768.57L224.72,739.7L201.5,725.26M271.16,653.08L271.16,681.95L294.38,696.39M271.16,681.95L247.94,696.39L247.94,725.26L271.16,739.7M247.94,696.39L224.72,681.95L201.5,696.39M247.94,638.65L224.72,653.09L224.72,681.96M224.72,739.7L247.94,725.26M201.5,638.65L224.72,653.09M201.5,782.73L201.5,811.6L224.72,826.04L247.94,811.6L247.94,782.73L224.72,768.57M247.94,811.6L271.16,826.04L294.38,811.6L294.38,782.73M201.5,898.21L224.72,912.65L247.94,898.21L247.94,869.34L224.72,854.9L201.5,869.34L201.5,898.21ZM247.94,898.21L271.16,912.65L294.38,898.21L294.38,869.34L271.16,854.9L247.94,869.34M271.16,826.03L271.16,854.9M224.72,826.03L224.72,854.9M108.64,782.72L108.64,811.59L131.86,826.03L155.06,811.59L155.06,782.72L131.86,768.56M155.06,811.59L178.28,826.03L201.5,811.59M108.64,811.59L85.42,826.03L85.42,854.9L108.64,869.34L131.86,854.9L131.86,826.03M85.42,854.9L61.96,869.34L61.96,898.21L85.42,912.65L108.64,898.21L108.64,869.34M85.42,912.65L85.42,941.52L108.64,955.7L131.86,941.52L131.86,912.65L108.64,898.21M201.5,869.34L178.28,854.9L155.06,869.34L155.06,898.21L178.28,912.65L201.5,898.21M178.28,826.03L178.28,854.9M131.86,912.64L155.06,898.2M155.06,869.33L131.86,854.89M155.06,955.68L155.06,984.55L178.28,998.99L201.5,984.55L201.5,955.68L178.28,941.5L155.06,955.68L131.86,941.5M108.64,955.68L108.64,984.55L131.86,998.99L155.06,984.55M131.86,998.99L131.86,1027.86M178.28,998.99L178.28,1027.86M224.72,912.63L224.72,941.5L247.94,955.68L271.16,941.5L271.16,912.63M201.5,955.68L224.72,941.5M201.5,984.55L224.72,998.99L247.94,984.55L247.94,955.68M224.72,998.99L224.72,1027.86M271.16,1027.86L271.16,998.99L247.94,984.55M178.28,912.63L178.28,941.5M433.92,782.71L433.92,811.58L457.14,826.02L480.36,811.58M387.5,782.71L387.5,811.58L410.7,826.02L433.92,811.58M410.7,854.89L387.5,869.33L387.5,898.2L410.7,912.64L433.92,898.2L433.92,869.33L410.7,854.89L410.7,826.02M480.36,869.33L457.14,854.89L433.92,869.33M433.92,898.2L457.14,912.64L480.36,898.2M457.14,854.89L457.14,826.02M364.28,768.55L341.06,782.71L341.06,811.58L364.28,826.02L387.5,811.58M294.38,811.58L317.84,826.02L341.06,811.58M294.38,898.19L317.84,912.63L341.06,898.19L341.06,869.32L317.84,854.88L294.38,869.32M387.5,898.19L364.28,912.63L364.28,941.5L387.5,955.68L410.7,941.5L410.7,912.63M387.5,869.32L364.28,854.88L341.06,869.32M364.28,912.63L341.06,898.19M317.84,854.88L317.84,826.01M364.28,826.01L364.28,854.88M317.84,912.62L317.84,941.49L341.06,955.67L364.28,941.49M271.16,941.49L294.38,955.67L317.84,941.49M294.38,955.67L294.38,984.54L317.84,998.98L341.06,984.54L341.06,955.67M317.84,998.98L317.84,1027.85M410.7,1027.85L410.7,998.98L387.5,984.54L364.28,998.98L364.28,1027.85M364.28,998.98L341.06,984.54M387.5,955.67L387.5,984.54M457.14,941.49L433.92,955.67L433.92,984.54L457.14,998.98L480.36,984.54L480.36,955.67L457.14,941.49L457.14,912.62M410.7,941.49L433.92,955.67M433.92,984.54L410.7,998.98M457.14,1027.85L457.14,998.98M271.17,998.98L294.39,984.54M178.29,768.54L155.07,782.7M271.17,768.54L247.95,782.7M341.07,782.7L317.85,768.54M480.37,782.7L457.15,768.54M15.54,523.42L15.54,552.29L38.76,566.73L61.98,552.29L61.98,523.42L38.76,508.97M61.98,552.29L85.44,566.73M-7.68,508.97L-30.9,523.42L-30.9,552.29L-7.68,566.73L15.54,552.29M15.54,609.76L-7.68,595.6L-30.9,609.76L-30.9,638.63L-7.68,653.07L15.54,638.63L15.54,609.76ZM15.54,638.63L38.76,653.07L61.98,638.63L61.98,609.76L38.76,595.6L15.54,609.76M85.44,595.6L61.98,609.76M-7.68,566.73L-7.68,595.6M38.76,595.6L38.76,566.73M-54.12,566.73L-30.9,552.29M-30.9,609.76L-54.12,595.6M-54.12,739.68L-30.9,725.24L-30.9,696.37L-54.12,681.93M38.76,653.06L38.76,681.93L61.98,696.37L85.44,681.93L85.44,653.06L61.98,638.62M-7.68,653.06L-7.68,681.93L15.54,696.37L38.76,681.93M-7.68,768.54L15.54,782.7L38.76,768.54L38.76,739.67L15.54,725.23L-7.68,739.67L-7.68,768.54L-30.9,782.7M38.76,739.67L61.98,725.23L61.98,696.36M61.98,725.23L85.44,739.67M15.54,696.36L15.54,725.23M-54.12,653.05L-30.9,638.61M-7.68,681.92L-30.9,696.36M-30.9,725.23L-7.68,739.67M15.54,782.7L15.54,811.57L38.76,826.01L61.98,811.57L61.98,782.7L38.76,768.54M61.98,811.57L85.44,826.01M15.54,811.57L-7.68,826.01L-7.68,854.88L15.54,869.32L38.76,854.88L38.76,826.01M-7.68,854.88L-30.9,869.32L-30.9,898.19L-7.68,912.63L15.54,898.19L15.54,869.32M15.54,898.19L38.76,912.63L61.98,898.19M61.98,869.32L38.76,854.88M-54.12,826.01L-30.9,811.57L-30.9,782.7L-54.12,768.54M-54.12,912.62L-30.9,898.18M-30.9,869.31L-54.12,854.87M-54.12,998.97L-30.9,984.53L-30.9,955.66L-54.12,941.48M85.44,941.48L61.98,955.66L61.98,984.53L85.44,998.97L108.66,984.53M61.98,955.66L38.76,941.48L15.54,955.66L15.54,984.53L38.76,998.97L61.98,984.53M-7.68,912.61L-7.68,941.48L15.54,955.66M15.54,984.53L-7.68,998.97L-7.68,1027.84M85.44,1027.84L85.44,998.97M38.76,1027.84L38.76,998.97M38.76,941.48L38.76,912.61M-30.9,811.56L-7.68,826M-7.68,941.48L-30.9,955.66M-30.9,984.53L-7.68,998.97M85.44,768.53L61.98,782.69M108.66,696.35L85.44,681.91M85.44,653.04L108.66,638.6M155.08,523.39L131.88,508.94M-30.89,523.39L-54.11,508.94M85.45,508.94L61.99,523.39M364.3,508.94L341.08,523.39M224.74,508.94L247.96,523.39M480.37,523.39L457.15,508.94M480.37,206.34L503.59,220.78M503.59,163.04L480.37,177.48M480.37,725.23L503.59,739.67M503.59,681.93L480.37,696.37M503.59,941.49L480.37,955.67M480.37,984.54L503.59,998.98M480.37,465.65L503.59,480.09M503.59,422.62L480.37,436.78" style="fill:none;fill-rule:nonzero;stroke:rgb(152,152,152);stroke-width:2.02px;stroke-linecap:square;"/>
            </g>
            <path d="M512,636L512,71L182,636L512,636Z" style="fill:none;fill-rule:nonzero;stroke:rgb(0,146,82);stroke-width:16px;stroke-miterlimit:4;"/>
            <path d="M512,388L512,953L842,388L512,388Z" style="fill:none;fill-rule:nonzero;stroke:rgb(0,146,82);stroke-width:16px;stroke-miterlimit:4;"/>
            <circle cx="512" cy="512" r="150" style="fill:rgb(0,146,82);fill-opacity:0;"/>
        </g>
    </g>
</svg>
