<?xml version="1.0" encoding="UTF-8" standalone="no"?>
<!DOCTYPE svg PUBLIC "-//W3C//DTD SVG 1.1//EN" "http://www.w3.org/Graphics/SVG/1.1/DTD/svg11.dtd">
<svg width="100%" height="100%" viewBox="0 0 1920 803" version="1.1" xmlns="http://www.w3.org/2000/svg" xmlns:xlink="http://www.w3.org/1999/xlink" xml:space="preserve" xmlns:serif="http://www.serif.com/" style="fill-rule:evenodd;clip-rule:evenodd;stroke-miterlimit:1;">
    <g id="sonarr">
        <rect x="0" y="0" width="1920" height="803" style="fill:rgb(33,62,68);"/>
        <g transform="matrix(1,0,0,1,-12.084,-32.903)">
            <text x="871.956px" y="509.54px" style="font-family:'Helvetica-Light', 'Helvetica', sans-serif;font-weight:300;font-size:290.066px;fill:white;">sonarr</text>
        </g>
        <g transform="matrix(2,0,0,2,454.125,401.5)">
            <g transform="matrix(1,0,0,1,-108.35,-108.45)">
                <clipPath id="_clip1">
                    <rect x="0" y="0" width="216.7" height="216.9"/>
                </clipPath>
                <g clip-path="url(#_clip1)">
                    <path d="M216.7,108.45C216.7,138.283 206.167,163.85 185.1,185.15C184.4,185.983 183.617,186.75 182.75,187.45C179.284,190.85 175.617,193.934 171.75,196.7C153.483,210.167 132.383,216.9 108.45,216.9C84.483,216.9 63.417,210.167 45.25,196.7C40.45,193.3 35.95,189.45 31.75,185.15C15.383,168.884 5.333,149.983 1.6,128.45C0.867,124.25 0.383,119.983 0.15,115.65C0.05,113.25 0,110.85 0,108.45C0,105.917 0.05,103.5 0.15,101.2C0.15,100.967 0.216,100.733 0.35,100.5C1.917,73.9 12.383,50.917 31.75,31.55C53.05,10.517 78.617,0 108.45,0C138.383,0 163.934,10.517 185.1,31.55C206.167,52.983 216.7,78.617 216.7,108.45Z" style="fill:rgb(238,238,238);"/>
                    <path d="M194.65,42.5L172.25,64.9C159.152,77.998 158,89.4 158,109.5C158,127.434 160.852,143.852 174.2,157.2C183.946,166.946 193.2,176.15 193.2,176.15C190.7,179.217 188,182.217 185.1,185.15C184.4,185.983 183.617,186.75 182.75,187.45C180.217,189.95 177.583,192.267 174.85,194.4L157.3,176.85C141.702,161.25 129.304,159.75 108.7,159.75C88.93,159.75 75.477,161.572 61,176.05C52.353,184.697 42.45,194.65 42.45,194.65C38.683,191.783 35.117,188.616 31.75,185.15C28.95,182.35 26.333,179.483 23.9,176.55C23.9,176.55 33.698,166.702 43.05,157.35C56.902,143.497 59.15,127.434 59.15,109.5C59.15,92 56.276,75.677 43.55,62.95C34.715,54.114 22.5,41.95 22.5,41.95C25.333,38.35 28.417,34.883 31.75,31.55C34.684,28.683 37.684,26 40.75,23.5L61.1,43.85C74.102,56.852 90.767,60.2 108.7,60.2C127.167,60.2 143.777,56.623 157.3,43.1C165.62,34.78 176.6,23.85 176.6,23.85C179.5,26.217 182.333,28.783 185.1,31.55C188.567,35.083 191.75,38.733 194.65,42.5Z" style="fill:rgb(58,63,81);"/>
                    <g>
                        <path d="M78.7,114C78.5,112.833 78.368,111.65 78.3,110.45C78.268,109.783 78.25,109.117 78.25,108.45C78.25,107.75 78.268,107.083 78.3,106.45C78.3,106.383 78.318,106.317 78.35,106.25C78.785,98.883 81.684,92.517 87.05,87.15C92.95,81.317 100.034,78.4 108.3,78.4C116.6,78.4 123.684,81.317 129.55,87.15C135.384,93.084 138.3,100.183 138.3,108.45C138.3,116.717 135.384,123.8 129.55,129.7C129.35,129.933 129.134,130.15 128.9,130.35C127.934,131.283 126.918,132.133 125.85,132.9C120.785,136.633 114.934,138.5 108.3,138.5C101.666,138.5 95.834,136.634 90.8,132.9C89.468,131.966 88.218,130.9 87.05,129.7C82.518,125.2 79.734,119.966 78.7,114Z" style="fill:rgb(0,204,255);"/>
                        <path d="M157.8,59.75L142.8,74.4M30.785,32.526L71.65,73.25M156.25,157.5L184.058,186.28M185.913,32.386L157.8,59.75M32.35,185.75L59.7,158.35" style="fill:none;fill-rule:nonzero;stroke:rgb(0,204,255);stroke-width:2px;"/>
                        <path d="M157.8,59.75L140.85,76.95M58.97,60.604L76.17,77.754M59.623,158.43L76.373,141.03M138.301,139.634L156.329,157.579" style="fill:none;fill-rule:nonzero;stroke:rgb(0,204,255);stroke-width:7px;"/>
                    </g>
                </g>
            </g>
        </g>
    </g>
    <g id="photoprism">
        <rect x="0" y="0" width="1920" height="803" style="fill:rgb(149,154,205);"/>
        <g transform="matrix(1,0,0,1,-189.084,-32.903)">
            <text x="871.956px" y="509.54px" style="font-family:'Helvetica-Light', 'Helvetica', sans-serif;font-weight:300;font-size:230px;fill:white;">Photoprism</text>
        </g>
        <g transform="matrix(1.6349,0,0,1.6349,453.856,401.5)">
            <g transform="matrix(1,0,0,1,-133,-133)">
                <circle cx="133" cy="133" r="132" style="fill:url(#_Linear2);"/>
                <path d="M224.19,176.51L220.19,200.7M41.91,177.5L56.72,191.5M152.48,53.85L56.62,191.31C56.605,191.327 56.597,191.348 56.597,191.37C56.597,191.419 56.638,191.46 56.687,191.46C56.688,191.46 56.689,191.46 56.69,191.46L220.1,200.83C220.103,200.83 220.106,200.831 220.11,200.831C220.159,200.831 220.2,200.79 220.2,200.741C220.2,200.726 220.196,200.713 220.19,200.7L152.62,53.87C152.587,53.826 152.524,53.817 152.48,53.85ZM132.74,40.56L41.8,177.31C41.79,177.329 41.785,177.349 41.785,177.37C41.785,177.439 41.841,177.497 41.91,177.5L224.09,176.7C224.091,176.7 224.092,176.7 224.093,176.7C224.158,176.7 224.213,176.646 224.213,176.58C224.213,176.555 224.205,176.53 224.19,176.51L132.95,40.56C132.929,40.522 132.889,40.498 132.845,40.498C132.801,40.498 132.761,40.522 132.74,40.56ZM132.85,40.4L152.62,53.72" style="fill:none;fill-rule:nonzero;stroke:rgb(29,29,27);stroke-width:6px;stroke-miterlimit:10;"/>
            </g>
        </g>
    </g>
    <defs>
        <linearGradient id="_Linear2" x1="0" y1="0" x2="1" y2="0" gradientUnits="userSpaceOnUse" gradientTransform="matrix(186.68,-186.68,186.68,186.68,39.66,226.34)"><stop offset="0" style="stop-color:white;stop-opacity:1"/><stop offset="0" style="stop-color:rgb(184,237,255);stop-opacity:1"/><stop offset="1" style="stop-color:rgb(212,184,255);stop-opacity:1"/></linearGradient>
    </defs>
</svg>
