<?xml version="1.0" encoding="UTF-8" standalone="no"?>
<!DOCTYPE svg PUBLIC "-//W3C//DTD SVG 1.1//EN" "http://www.w3.org/Graphics/SVG/1.1/DTD/svg11.dtd">
<svg width="100%" height="100%" viewBox="0 0 1920 803" version="1.1" xmlns="http://www.w3.org/2000/svg" xmlns:xlink="http://www.w3.org/1999/xlink" xml:space="preserve" xmlns:serif="http://www.serif.com/" style="fill-rule:evenodd;clip-rule:evenodd;stroke-linejoin:round;stroke-miterlimit:2;">
    <g>
        <rect x="0" y="0" width="1920" height="803" style="fill:rgb(0,11,37);"/>
        <g transform="matrix(1,0,0,1,960,401.5)">
            <g transform="matrix(1,0,0,1,-768,-256)">
                <g id="banner-dark">
                    <g id="banner-dark-icon">
                        <path id="inner-shape" d="M261.42,201.62C240.98,201.62 175.18,320.91 185.22,341.05C195.26,361.19 327.7,360.97 337.62,341.05C347.54,321.13 281.86,201.63 261.42,201.62Z" style="fill:url(#_Linear1);fill-rule:nonzero;"/>
                        <path id="outer-shape" d="M261.42,23.3C199.83,23.3 1.57,382.73 31.8,443.43C62.03,504.13 461.14,503.43 491.04,443.43C520.94,383.43 323,23.3 261.42,23.3ZM411.9,390.76C392.31,430.09 130.82,430.53 111,390.76C91.18,350.99 221.1,115.48 261.45,115.48C301.8,115.48 431.49,351.42 411.9,390.76Z" style="fill:url(#_Linear2);fill-rule:nonzero;"/>
                    </g>
                    <g id="jellyfin-light-outlines" transform="matrix(1,0,0,1,43.8,0)">
                        <path d="M556.64,350.75C546.671,343.834 538.765,334.338 533.77,323.28C532.832,321.871 532.315,320.223 532.28,318.53C532.246,316.219 533.294,314.02 535.11,312.59C536.782,311.082 538.949,310.235 541.2,310.21C544.36,310.21 547.14,311.9 549.51,315.26C552.978,323.415 558.634,330.456 565.85,335.6C572.844,340.605 581.25,343.26 589.85,343.18C603.523,343.18 614.613,338.973 623.12,330.56C631.627,322.147 635.883,311.107 635.89,297.44L635.89,159C635.825,156.587 636.798,154.259 638.56,152.61C640.415,150.903 642.871,149.996 645.39,150.09C647.868,149.973 650.287,150.886 652.07,152.61C653.754,154.302 654.669,156.614 654.6,159L654.6,297.4C654.762,308.833 651.891,320.107 646.28,330.07C640.879,339.636 632.912,347.506 623.28,352.79C613.507,358.263 602.38,361 589.9,361C578.02,361.12 566.392,357.537 556.64,350.75Z" style="fill:white;fill-rule:nonzero;"/>
                        <path d="M831.66,279.47C830,281.109 827.753,282.021 825.42,282L713.16,282C713.16,293.88 715.583,304.52 720.43,313.92C725.119,323.158 732.328,330.884 741.22,336.2C750.227,341.653 760.87,344.377 773.15,344.37C782.022,344.518 790.794,342.478 798.69,338.43C805.798,334.816 811.994,329.636 816.81,323.28C818.515,321.69 820.723,320.745 823.05,320.61C827.202,320.819 830.561,324.178 830.77,328.33C830.664,330.731 829.579,332.987 827.77,334.57C821.194,342.482 813.053,348.951 803.86,353.57C794.473,358.466 784.037,361.015 773.45,361C758.203,361 744.737,357.733 733.05,351.2C721.524,344.815 712.047,335.283 705.73,323.72C699.203,311.947 695.937,298.337 695.93,282.89C695.93,266.65 699.147,252.443 705.58,240.27C712.013,228.097 720.577,218.79 731.27,212.35C741.544,206.037 753.371,202.695 765.43,202.7C777.083,202.642 788.569,205.496 798.84,211C809.357,216.663 818.136,225.086 824.23,235.36C830.77,246.027 834.137,258.693 834.33,273.36C834.362,275.685 833.388,277.914 831.66,279.47ZM733.5,231.8C723.7,239.72 717.413,251.12 714.64,266L815.92,266L815.92,263.62C815.113,255.174 812.03,247.103 807,240.27C802.179,233.747 795.796,228.537 788.44,225.12C781.25,221.714 773.396,219.938 765.44,219.92C753.947,219.92 743.3,223.88 733.5,231.8Z" style="fill:white;fill-rule:nonzero;"/>
                        <path d="M888.24,355.5C886.562,357.218 884.26,358.187 881.859,358.187C876.965,358.187 872.939,354.161 872.939,349.267C872.939,349.218 872.939,349.169 872.94,349.12L872.94,147.12C872.94,142.232 876.962,138.21 881.85,138.21C886.738,138.21 890.76,142.232 890.76,147.12L890.76,349.12C890.835,351.502 889.923,353.812 888.24,355.5Z" style="fill:white;fill-rule:nonzero;"/>
                        <path d="M956.55,355.5C954.872,357.218 952.57,358.187 950.169,358.187C945.275,358.187 941.249,354.161 941.249,349.267C941.249,349.218 941.249,349.169 941.25,349.12L941.25,147.12C941.25,142.232 945.272,138.21 950.16,138.21C955.048,138.21 959.07,142.232 959.07,147.12L959.07,349.12C959.145,351.502 958.233,353.812 956.55,355.5Z" style="fill:white;fill-rule:nonzero;"/>
                        <path d="M1122.86,206.11C1124.54,207.802 1125.46,210.114 1125.39,212.5L1125.39,343.5C1125.39,359.127 1122.32,372.49 1116.18,383.59C1110.37,394.356 1101.47,403.149 1090.64,408.84C1079.75,414.58 1067.47,417.45 1053.81,417.45C1045.96,417.506 1038.13,416.606 1030.5,414.77C1024.16,413.358 1018.09,410.955 1012.5,407.65C1008.34,405.07 1006.26,402.197 1006.26,399.03C1006.37,398.015 1006.58,397.011 1006.86,396.03C1007.32,394.248 1008.38,392.677 1009.86,391.58C1011.14,390.62 1012.71,390.097 1014.31,390.09C1015.55,390.104 1016.77,390.408 1017.87,390.98C1030.54,397.907 1042.62,401.373 1054.11,401.38C1070.54,401.38 1083.56,396.233 1093.17,385.94C1102.78,375.647 1107.58,361.587 1107.57,343.76L1107.57,333.38C1102.41,341.875 1095.01,348.794 1086.19,353.38C1076.89,358.428 1066.47,361.036 1055.89,360.96C1038.67,360.96 1025.6,355.81 1016.69,345.51C1007.78,335.21 1003.32,321.253 1003.32,303.64L1003.32,212.5C1003.32,207.612 1007.34,203.59 1012.23,203.59C1017.12,203.59 1021.14,207.612 1021.14,212.5L1021.14,301C1021.14,315.26 1024.26,326.053 1030.5,333.38C1036.74,340.707 1046.49,344.373 1059.75,344.38C1067.91,344.366 1075.94,342.27 1083.07,338.29C1090.22,334.483 1096.34,328.991 1100.89,322.29C1105.22,316.052 1107.55,308.643 1107.57,301.05L1107.57,212.5C1107.6,207.581 1111.65,203.547 1116.57,203.547C1118.92,203.547 1121.18,204.467 1122.86,206.11Z" style="fill:white;fill-rule:nonzero;"/>
                        <path d="M1210.18,161.41C1206.71,165.57 1204.97,171.313 1204.98,178.64L1204.98,209.23L1238.25,209.23C1240.42,209.225 1242.5,210.082 1244.04,211.61C1245.65,213.166 1246.56,215.311 1246.56,217.55C1246.56,219.789 1245.65,221.934 1244.04,223.49C1242.5,225.012 1240.42,225.864 1238.25,225.86L1205,225.86L1205,349.12C1205,354.008 1200.98,358.03 1196.09,358.03C1191.2,358.03 1187.18,354.008 1187.18,349.12L1187.18,225.86L1165.5,225.86C1163.25,225.913 1161.09,224.994 1159.56,223.34C1158.04,221.799 1157.18,219.716 1157.19,217.55C1157.08,215.276 1157.94,213.059 1159.56,211.46C1161.17,209.963 1163.3,209.161 1165.5,209.23L1187.18,209.23L1187.18,178.64C1187.18,166.173 1190.79,156.507 1198.02,149.64C1205.25,142.773 1214.91,139.36 1227.02,139.4C1232.28,139.353 1237.5,140.205 1242.47,141.92C1247.22,143.607 1249.6,146.33 1249.59,150.09C1249.65,152.311 1248.79,154.462 1247.22,156.03C1245.84,157.524 1243.9,158.382 1241.87,158.4C1239.62,158.301 1237.41,157.8 1235.34,156.92C1231.96,155.892 1228.47,155.294 1224.94,155.14C1218.56,155.167 1213.64,157.257 1210.18,161.41ZM1276,180.87C1273.81,178.99 1272.73,176.26 1272.73,172.7L1272.73,169.7C1272.73,166.14 1273.87,163.417 1276.14,161.53C1278.41,159.643 1281.53,158.703 1285.5,158.71C1293.42,158.71 1297.38,162.377 1297.38,169.71L1297.38,172.71C1297.38,176.27 1296.38,179 1294.26,180.88C1292.14,182.76 1289.16,183.7 1285.2,183.7C1281.24,183.7 1278.14,182.75 1276,180.87ZM1291.59,355.5C1289.91,357.218 1287.61,358.187 1285.21,358.187C1280.32,358.187 1276.29,354.161 1276.29,349.267C1276.29,349.218 1276.29,349.169 1276.29,349.12L1276.29,212.5C1276.29,207.612 1280.31,203.59 1285.2,203.59C1290.09,203.59 1294.11,207.612 1294.11,212.5L1294.11,349.12C1294.18,351.506 1293.25,353.817 1291.56,355.5L1291.59,355.5Z" style="fill:white;fill-rule:nonzero;"/>
                        <path d="M1452.53,218.88C1461.14,229.68 1465.45,243.987 1465.45,261.8L1465.45,349.12C1465.52,351.53 1464.54,353.856 1462.78,355.5C1461.12,357.137 1458.87,358.047 1456.54,358.03C1456.45,358.033 1456.36,358.034 1456.27,358.034C1451.53,358.034 1447.63,354.134 1447.63,349.394C1447.63,349.303 1447.63,349.211 1447.63,349.12L1447.63,262.69C1447.63,249.817 1444.41,239.373 1437.98,231.36C1431.55,223.347 1421.6,219.347 1408.13,219.36C1391.23,219.435 1375.34,227.548 1365.36,241.19C1360.74,247.418 1358.24,254.967 1358.23,262.72L1358.23,349.15C1358.23,354.038 1354.21,358.06 1349.32,358.06C1344.43,358.06 1340.41,354.038 1340.41,349.15L1340.41,216.06C1340.41,211.172 1344.43,207.15 1349.32,207.15C1354.21,207.15 1358.23,211.172 1358.23,216.06L1358.23,232.4C1363.56,223.887 1371.23,216.807 1381.23,211.16C1390.57,205.697 1401.18,202.779 1412,202.7C1430.41,202.7 1443.92,208.093 1452.53,218.88Z" style="fill:white;fill-rule:nonzero;"/>
                    </g>
                </g>
            </g>
        </g>
    </g>
    <defs>
        <linearGradient id="_Linear1" x1="0" y1="0" x2="1" y2="0" gradientUnits="userSpaceOnUse" gradientTransform="matrix(385.89,222.79,-222.79,385.89,110.25,213.3)"><stop offset="0" style="stop-color:rgb(170,92,195);stop-opacity:1"/><stop offset="1" style="stop-color:rgb(0,164,220);stop-opacity:1"/></linearGradient>
        <linearGradient id="_Linear2" x1="0" y1="0" x2="1" y2="0" gradientUnits="userSpaceOnUse" gradientTransform="matrix(385.89,222.79,-222.79,385.89,110.25,213.3)"><stop offset="0" style="stop-color:rgb(170,92,195);stop-opacity:1"/><stop offset="1" style="stop-color:rgb(0,164,220);stop-opacity:1"/></linearGradient>
    </defs>
</svg>
