<svg version="1.1" viewBox="0 0 1480.6 465.39" xmlns="http://www.w3.org/2000/svg">
	<defs>
		<linearGradient id="icon_gradient" x1="110.25" x2="496.14" y1="213.3" y2="436.09" gradientTransform="translate(-28.685 -23.301)" gradientUnits="userSpaceOnUse">
			<stop stop-color="#AA5CC3" offset="0" />
			<stop stop-color="#00A4DC" offset="1" />
		</linearGradient>
	</defs>
	<path id="icon" d="m232.73 0c-61.59 0-259.85 359.43-229.62 420.13 30.23 60.7 429.34 60 459.24 0s-168.04-420.13-229.62-420.13zm0.0293 92.18c40.35 0 170.04 235.94 150.45 275.28-19.59 39.33-281.08 39.77-300.9 0s110.1-275.28 150.45-275.28zm-0.0293 86.139c-20.44 0-86.239 119.29-76.199 139.43s142.48 19.92 152.4 0-55.759-139.42-76.199-139.43z" fill="url(#icon_gradient)" />
	<path id="text" d="m897.02 114.91a8.91 8.91 0 0 0-8.9707 8.9082v202a8.92 8.92 0 0 0 15.299 6.3809 8.65 8.65 0 0 0 2.5215-6.3809v-202a8.91 8.91 0 0 0-8.8496-8.9082zm68.309 0a8.91 8.91 0 0 0-8.9688 8.9082v202a8.92 8.92 0 0 0 15.299 6.3809 8.65 8.65 0 0 0 2.5195-6.3809v-202a8.91 8.91 0 0 0-8.8496-8.9082zm277.37 1.1875a46.1 46.1 0 0 0-0.5703 2e-3c-12.107-0.04-21.773 3.3736-29 10.24-7.2267 6.8667-10.84 16.533-10.84 29v30.59h-21.68a8.33 8.33 0 0 0-5.9414 2.2305 8 8 0 0 0-2.3692 6.0898 8.21 8.21 0 0 0 2.3692 5.7891 7.83 7.83 0 0 0 5.9414 2.5195h21.68v123.26a8.91 8.91 0 1 0 17.82 0v-123.26h33.25a8.22 8.22 0 0 0 5.789-2.3692 8.26 8.26 0 0 0 0-11.881 8.19 8.19 0 0 0-5.789-2.3789h-33.272v-30.59c-0.01-7.3267 1.7278-13.07 5.2012-17.23 3.46-4.1533 8.3797-6.2429 14.76-6.2695a42 42 0 0 1 10.4 1.7793 18.81 18.81 0 0 0 6.5293 1.4805 7.37 7.37 0 0 0 5.3496-2.3711 8.07 8.07 0 0 0 2.3711-5.9395c0.01-3.76-2.3677-6.4832-7.1211-8.1699a46.1 46.1 0 0 0-14.879-2.5215zm-581.7 10.682a9 9 0 0 0-0.50586 0.01 9.56 9.56 0 0 0-6.8301 2.5195 8.44 8.44 0 0 0-2.6699 6.3906v138.44c-7e-3 13.667-4.2629 24.708-12.77 33.121-8.5067 8.4133-19.596 12.619-33.27 12.619a40.59 40.59 0 0 1-24-7.5801 48.09 48.09 0 0 1-16.34-20.34c-2.37-3.36-5.1506-5.0488-8.3106-5.0488a9.25 9.25 0 0 0-6.0898 2.3789 7.42 7.42 0 0 0-2.8301 5.9395 8.91 8.91 0 0 0 1.4902 4.75 67 67 0 0 0 22.869 27.471 57.21 57.21 0 0 0 33.26 10.25c12.48 0 23.608-2.7376 33.381-8.2109a59 59 0 0 0 23-22.719 64.7 64.7 0 0 0 8.3203-32.67v-138.4a8.7 8.7 0 0 0-2.5312-6.3906 9 9 0 0 0-6.1738-2.5293zm639.61 8.6309c-3.9667-7e-3 -7.088 0.93169-9.3613 2.8184-2.2734 1.8867-3.4102 4.6099-3.4102 8.1699v3c0 3.56 1.0815 6.2899 3.2715 8.1699 2.14 1.88 5.2392 2.8301 9.1992 2.8301s6.9405-0.93836 9.0605-2.8184 3.1192-4.6099 3.1192-8.1699v-3c0-7.3333-3.9589-11-11.879-11zm-520.07 43.988a65.2 65.2 0 0 0-34.16 9.6504c-10.693 6.44-19.256 15.747-25.689 27.92s-9.6504 26.381-9.6504 42.621c7e-3 15.447 3.2722 29.057 9.7988 40.83a69.51 69.51 0 0 0 27.32 27.479c11.687 6.5333 25.154 9.8008 40.4 9.8008a65.56 65.56 0 0 0 30.41-7.4297 74.7 74.7 0 0 0 23.91-19 8.81 8.81 0 0 0 3-6.2402 8.14 8.14 0 0 0-7.7207-7.7207 10 10 0 0 0-6.2402 2.6699 52.7 52.7 0 0 1-18.119 15.15 54 54 0 0 1-25.541 5.9394c-12.28 7e-3 -22.923-2.7166-31.93-8.1699a54.91 54.91 0 0 1-20.789-22.279c-4.8467-9.4-7.2695-20.04-7.2695-31.92h112.26a8.77 8.77 0 0 0 6.2402-2.5293 8.07 8.07 0 0 0 2.6699-6.1113c-0.19333-14.667-3.5616-27.333-10.102-38a65.78 65.78 0 0 0-25.389-24.359 70 70 0 0 0-33.41-8.3008zm646.57 0a61.84 61.84 0 0 0-30.772 8.4609c-10 5.6467-17.667 12.727-23 21.24v-16.34a8.91 8.91 0 1 0-17.818 0v133.09a8.91 8.91 0 1 0 17.818 0v-86.43a36.24 36.24 0 0 1 7.1309-21.531 53.28 53.28 0 0 1 42.77-21.83c13.467-0.0133 23.416 3.9867 29.85 12 6.4333 8.0133 9.6504 18.457 9.6504 31.33v86.43a8.64 8.64 0 0 0 8.9101 8.9102 8.8 8.8 0 0 0 6.2403-2.5293 8.4 8.4 0 0 0 2.6699-6.3809v-87.318c0-17.813-4.3066-32.12-12.92-42.92-8.6134-10.787-22.123-16.182-40.529-16.182zm-295.39 0.84766a9 9 0 0 0-9.0371 8.9531v88.551a37.44 37.44 0 0 1-6.6796 21.238 49.88 49.88 0 0 1-17.82 16 48 48 0 0 1-23.318 6.0918c-13.26-7e-3 -23.01-3.6733-29.25-11s-9.3613-18.121-9.3613-32.381v-88.5a8.91 8.91 0 1 0-17.82 0v91.141c0 17.613 4.4578 31.569 13.371 41.869 8.9134 10.3 21.979 15.451 39.199 15.451a62.55 62.55 0 0 0 30.301-7.5801 54.37 54.37 0 0 0 21.379-20v10.379c0.01 17.827-4.7917 31.886-14.398 42.18-9.6067 10.293-22.627 15.441-39.06 15.441-11.493-7e-3 -23.574-3.4737-36.24-10.4a7.91 7.91 0 0 0-3.5605-0.89063 7.49 7.49 0 0 0-4.4492 1.4902 8.06 8.06 0 0 0-3 4.4492 17.94 17.94 0 0 0-0.5997 3c0 3.1667 2.0803 6.0411 6.2403 8.6211a61.72 61.72 0 0 0 18 7.1191 96.73 96.73 0 0 0 23.309 2.6797c13.66 0 25.937-2.8694 36.83-8.6094a61.58 61.58 0 0 0 25.541-25.25c6.14-11.1 9.209-24.463 9.209-40.09v-131a8.7 8.7 0 0 0-2.5293-6.3906 9 9 0 0 0-6.254-2.5625zm168.65 0.043a8.91 8.91 0 0 0-8.9707 8.9102v136.62a8.92 8.92 0 0 0 15.301 6.3809h-0.031a8.65 8.65 0 0 0 2.5508-6.3809v-136.62a8.91 8.91 0 0 0-8.8497-8.9102zm-519.82 16.33a54 54 0 0 1 23 5.1992 48.47 48.47 0 0 1 18.561 15.15 46.91 46.91 0 0 1 8.9199 23.35v2.3809h-101.28c2.7733-14.88 9.0613-26.279 18.861-34.199s20.446-11.881 31.939-11.881z" fill="#FFFFFF" />
</svg>
